%TF.GenerationSoftware,Altium Limited,Altium Designer,23.8.1 (32)*%
G04 Layer_Physical_Order=1*
G04 Layer_Color=255*
%FSLAX45Y45*%
%MOMM*%
%TF.SameCoordinates,9B8521B9-100F-40E6-B2DB-B025D5793E82*%
%TF.FilePolarity,Positive*%
%TF.FileFunction,Copper,L1,Top,Signal*%
%TF.Part,Single*%
G01*
G75*
%TA.AperFunction,ConnectorPad*%
%ADD10R,1.27000X3.18000*%
%TA.AperFunction,SMDPad,CuDef*%
%ADD11R,6.10000X2.40000*%
%ADD12R,2.00000X2.50000*%
%ADD13R,0.50000X2.50000*%
%ADD14R,0.30000X1.20000*%
%ADD15R,1.20000X0.30000*%
%ADD16R,0.80000X0.60000*%
%ADD17R,0.90000X0.70000*%
%ADD18R,1.00000X0.95000*%
%ADD19R,0.95000X1.00000*%
%ADD20R,0.35000X0.80000*%
%ADD21R,0.85000X0.35000*%
%ADD22R,2.60000X2.70000*%
%ADD23R,0.70000X0.90000*%
%ADD24R,0.66000X1.00000*%
%ADD25R,0.85000X0.90000*%
%ADD26R,0.94000X0.70000*%
%ADD27R,1.30000X1.00000*%
%ADD28R,0.53000X0.20000*%
%ADD29R,0.80000X0.80000*%
%TA.AperFunction,ConnectorPad*%
%ADD30R,0.95000X1.00000*%
%TA.AperFunction,SMDPad,CuDef*%
%ADD31R,0.67500X0.57500*%
%TA.AperFunction,Conductor*%
%ADD32C,0.25000*%
%ADD33C,0.20000*%
%ADD34C,0.30000*%
%ADD35C,0.60000*%
%ADD36C,0.50000*%
%ADD37C,0.18000*%
%ADD38C,0.40000*%
%ADD39C,0.29000*%
%TA.AperFunction,ComponentPad*%
%ADD40C,1.20000*%
%TA.AperFunction,ViaPad*%
%ADD41C,0.70000*%
%ADD42C,0.60000*%
%ADD43C,0.80000*%
G36*
X183110Y1375000D02*
X187970Y1363267D01*
X177610Y1352907D01*
X168986Y1340000D01*
X-27100D01*
Y1345400D01*
X-57300D01*
Y1340005D01*
X-57505D01*
Y1280000D01*
X-82700D01*
Y1345400D01*
X-112900D01*
Y1333346D01*
X-124771Y1326214D01*
X-125600Y1326247D01*
X-137617Y1328637D01*
X-152500D01*
X-165181Y1326114D01*
X-175931Y1318931D01*
X-183114Y1308181D01*
X-185637Y1295500D01*
X-183114Y1282820D01*
X-175931Y1272069D01*
X-165181Y1264886D01*
X-152757Y1262415D01*
X-151879Y1261624D01*
X-146028Y1254652D01*
X-150332Y1242500D01*
X-205000D01*
Y1224994D01*
X-216733Y1220134D01*
X-232500Y1235900D01*
Y1330000D01*
X-367500D01*
Y1195834D01*
X-372900Y1185400D01*
X-383627Y1180637D01*
X-387433D01*
X-400000Y1183136D01*
X-412681Y1180614D01*
X-423431Y1173431D01*
X-430614Y1162681D01*
X-433136Y1150000D01*
X-430614Y1137319D01*
X-423431Y1126569D01*
X-420931Y1124069D01*
X-410181Y1116886D01*
X-397500Y1114364D01*
X-372900D01*
Y1034600D01*
X-305223D01*
X-299962Y1021900D01*
X-323431Y998431D01*
X-330614Y987681D01*
X-333136Y975000D01*
X-362500D01*
Y895467D01*
X-380767Y877200D01*
X-392500Y882061D01*
Y975000D01*
X-404020D01*
Y1045000D01*
X-407901Y1064509D01*
X-418952Y1081048D01*
X-468126Y1130222D01*
Y1194105D01*
X-472006Y1213614D01*
X-483057Y1230153D01*
X-553952Y1301048D01*
X-570491Y1312099D01*
X-590000Y1315980D01*
X-1040000D01*
Y1335000D01*
X-1163138D01*
X-1190438Y1362300D01*
X-1185177Y1375000D01*
X183110D01*
D02*
G37*
G36*
X2400000Y1375000D02*
X2442584Y1346157D01*
X2512699Y1292700D01*
X2508410Y1280000D01*
X2164925D01*
X2160000Y1280980D01*
X1895000D01*
Y1327500D01*
X1813112D01*
X1812679Y1329676D01*
X1803839Y1342907D01*
X1803838Y1342907D01*
X1783479Y1363267D01*
X1788339Y1375000D01*
X2400000D01*
D02*
G37*
G36*
X1687700Y1187100D02*
X1750400D01*
Y1187100D01*
X1755001Y1192500D01*
X1780715D01*
X1784567Y1179800D01*
X1778952Y1176048D01*
X1478884Y875979D01*
X870000D01*
Y889999D01*
X750001D01*
X750000Y890000D01*
Y890000D01*
X740998Y897764D01*
X652714Y986048D01*
X636175Y997099D01*
X616666Y1000979D01*
X610000D01*
Y1034137D01*
X615400Y1044600D01*
X615401Y1044600D01*
X615400Y1044601D01*
Y1067770D01*
X643717D01*
X650000Y1066521D01*
X669509Y1070401D01*
X686048Y1081452D01*
X697099Y1097991D01*
X700979Y1117500D01*
X697099Y1137009D01*
X686048Y1153548D01*
X684798Y1154798D01*
X668259Y1165849D01*
X648750Y1169729D01*
X615400D01*
Y1195400D01*
X624530Y1204020D01*
X744600D01*
Y1199600D01*
X797300D01*
Y1255000D01*
X822700D01*
Y1199600D01*
X875400D01*
Y1204020D01*
X1599600D01*
Y1187100D01*
X1662300D01*
Y1260001D01*
X1687700D01*
Y1187100D01*
D02*
G37*
G36*
X-1675000Y1067500D02*
Y982968D01*
X-1727968Y930000D01*
X-1853661D01*
X-1858521Y941733D01*
X-1804327Y995927D01*
X-1796702Y1007339D01*
X-1794024Y1020800D01*
Y1075000D01*
X-1684594D01*
X-1675000Y1067500D01*
D02*
G37*
G36*
X-2127500Y1116311D02*
Y1060000D01*
X-2042967D01*
X-2003186Y1020219D01*
Y930000D01*
X-2149600D01*
Y977300D01*
X-2225000D01*
Y1002700D01*
X-2149600D01*
Y1037100D01*
Y1110804D01*
X-2139233Y1121171D01*
X-2127500Y1116311D01*
D02*
G37*
G36*
X-1210000Y1288138D02*
Y1267096D01*
X-1316048Y1161048D01*
X-1327099Y1144509D01*
X-1330980Y1125000D01*
Y923601D01*
X-1340797Y915544D01*
X-1345500Y916480D01*
X-1374579D01*
X-1379600Y927100D01*
Y987300D01*
X-1455000D01*
Y1012700D01*
X-1379600D01*
Y1072900D01*
X-1399020D01*
Y1089853D01*
X-1402901Y1109362D01*
X-1410250Y1120360D01*
X-1402107Y1128503D01*
X-1393952Y1133952D01*
X-1382901Y1150491D01*
X-1379020Y1170000D01*
X-1382901Y1189509D01*
X-1393952Y1206048D01*
X-1410491Y1217099D01*
X-1430000Y1220980D01*
X-1432706D01*
X-1452215Y1217099D01*
X-1468754Y1206048D01*
X-1473822Y1200980D01*
X-1486230D01*
X-1497099Y1205400D01*
X-1502500Y1216197D01*
Y1311971D01*
X-1496538Y1316864D01*
X-1238725D01*
X-1210000Y1288138D01*
D02*
G37*
G36*
X1925000Y1054926D02*
X1924020Y1050000D01*
Y-523884D01*
X1378884Y-1069020D01*
X275500D01*
Y-941000D01*
X108500D01*
Y-1248533D01*
X27670Y-1329363D01*
X-198492D01*
X-203352Y-1317630D01*
X-181790Y-1296068D01*
X-145500D01*
Y-1299000D01*
X-116200D01*
X-113000Y-1299636D01*
X-109800Y-1299000D01*
X21500D01*
Y-941000D01*
X-95032D01*
X-216266Y-819766D01*
X-227843Y-812031D01*
X-241500Y-809314D01*
X-916016D01*
X-918865Y-805200D01*
X-912211Y-792500D01*
X-807500D01*
Y-773186D01*
X-637500D01*
Y-792500D01*
X-507500D01*
Y-739989D01*
X-494800Y-735030D01*
X-486659Y-740469D01*
X-473003Y-743186D01*
X355000D01*
Y-775000D01*
X480000D01*
Y-657700D01*
X480001Y-645001D01*
X480001D01*
Y-644999D01*
X480000D01*
Y-520392D01*
X510000D01*
Y-632300D01*
X510000Y-645000D01*
X510000Y-657700D01*
Y-775000D01*
X584533D01*
X609766Y-800234D01*
X621344Y-807969D01*
X635000Y-810686D01*
X733855D01*
X743328Y-822203D01*
X741723Y-826918D01*
X741120Y-827521D01*
X674206D01*
X654697Y-831401D01*
X638158Y-842452D01*
X622107Y-858503D01*
X613952Y-863952D01*
X602901Y-880491D01*
X599020Y-900000D01*
X602901Y-919509D01*
X613952Y-936048D01*
X630491Y-947099D01*
X650000Y-950980D01*
X652706D01*
X672215Y-947099D01*
X688754Y-936048D01*
X695322Y-929480D01*
X750100D01*
Y-938900D01*
X809800D01*
Y-878500D01*
X835200D01*
Y-938900D01*
X894900D01*
Y-929480D01*
X1026100D01*
Y-938900D01*
X1085800D01*
Y-878500D01*
X1098500D01*
Y-865800D01*
X1170900D01*
Y-820900D01*
Y-773200D01*
X1026100D01*
Y-827521D01*
X903880D01*
X894900Y-818540D01*
Y-818100D01*
X889500Y-807637D01*
Y-710200D01*
X889500Y-697500D01*
X889500Y-692800D01*
Y-587500D01*
X805967D01*
X773234Y-554766D01*
X761656Y-547031D01*
X748000Y-544314D01*
X635000D01*
Y-520392D01*
X999999D01*
X1000000Y-520392D01*
X1007804Y-518840D01*
X1014419Y-514419D01*
X1018840Y-507804D01*
X1020392Y-500000D01*
X1018840Y-492196D01*
X1014419Y-485581D01*
X1014419Y-485580D01*
X778839Y-250000D01*
X1014419Y-14419D01*
X1018840Y-7804D01*
X1020392Y0D01*
X1018840Y7804D01*
X1014419Y14419D01*
X1014419Y14420D01*
X778839Y250000D01*
X1014419Y485581D01*
X1018840Y492196D01*
X1020392Y500000D01*
X1018840Y507804D01*
X1014419Y514419D01*
X1007804Y518840D01*
X1000000Y520392D01*
X-450000D01*
X-457804Y518840D01*
X-464419Y514419D01*
X-940367Y38472D01*
X-952100Y43332D01*
Y95400D01*
X-999800D01*
Y25000D01*
X-1025200D01*
Y95400D01*
X-1032212D01*
X-1037210Y108100D01*
X-1023866Y121444D01*
X-1014732Y143497D01*
Y167366D01*
X-1023866Y189418D01*
X-1040744Y206297D01*
X-1062797Y215431D01*
X-1083139D01*
X-1089088Y225956D01*
X-1089366Y227164D01*
X-1002216Y314314D01*
X-857500D01*
X-843843Y317031D01*
X-832266Y324766D01*
X-449224Y707808D01*
X-436524Y702547D01*
Y694590D01*
X-427390Y672537D01*
X-410512Y655659D01*
X-388459Y646524D01*
X-383208D01*
X-372636Y635952D01*
X-356097Y624901D01*
X-336588Y621020D01*
X282000D01*
X301509Y624901D01*
X318048Y635952D01*
X448548Y766452D01*
X459599Y782991D01*
X463480Y802500D01*
Y900000D01*
X555074D01*
X560000Y899020D01*
X595550D01*
X693646Y800924D01*
X710185Y789873D01*
X729693Y785993D01*
X750000D01*
Y770000D01*
X870000D01*
Y774020D01*
X1500000D01*
X1519509Y777901D01*
X1536048Y788952D01*
X1836116Y1089020D01*
X1925000D01*
Y1054926D01*
D02*
G37*
G36*
X345000Y948138D02*
Y900000D01*
X361520D01*
Y823617D01*
X260884Y722980D01*
X-315472D01*
X-315782Y723290D01*
X-316188Y730498D01*
X-307577Y738482D01*
X-304080Y740000D01*
X-284060D01*
X-263845Y748373D01*
X-248373Y763845D01*
X-240000Y784060D01*
Y790961D01*
X-231597Y799363D01*
X-213415D01*
X-200734Y801886D01*
X-189984Y809069D01*
X-174069Y824984D01*
X-166886Y835734D01*
X-164363Y848415D01*
Y886275D01*
X-149069Y901569D01*
X-141886Y912319D01*
X-140855Y917500D01*
X-112900D01*
Y892700D01*
X-70000D01*
Y867300D01*
X-112900D01*
Y861462D01*
X-173431Y800931D01*
X-180614Y790181D01*
X-183137Y777500D01*
Y775000D01*
X-180614Y762319D01*
X-173431Y751569D01*
X-162681Y744386D01*
X-150000Y741863D01*
X-137319Y744386D01*
X-126569Y751569D01*
X-121535Y759103D01*
X-66037Y814600D01*
X-27100D01*
Y820000D01*
X217500D01*
Y917500D01*
X315000D01*
Y960177D01*
X327700Y965438D01*
X345000Y948138D01*
D02*
G37*
G36*
X-2171917Y1375000D02*
X-2167057Y1363267D01*
X-2252662Y1277662D01*
X-2254599Y1274763D01*
X-2351862Y1177500D01*
X-2445000D01*
Y1040980D01*
X-2635000D01*
X-2654509Y1037099D01*
X-2671048Y1026048D01*
X-2974612Y722484D01*
X-2984888Y729947D01*
X-2982681Y734283D01*
X-2930951Y823194D01*
X-2874320Y909067D01*
X-2812966Y991631D01*
X-2747081Y1070628D01*
X-2676874Y1145809D01*
X-2602565Y1216937D01*
X-2524386Y1283790D01*
X-2442584Y1346157D01*
X-2400000Y1375000D01*
X-2400000Y1375000D01*
X-2171917D01*
D02*
G37*
G36*
X-570085Y1172989D02*
Y1109105D01*
X-566204Y1089596D01*
X-555153Y1073057D01*
X-505979Y1023883D01*
Y975000D01*
X-517500D01*
Y852500D01*
X-538440D01*
X-558655Y844127D01*
X-574127Y828655D01*
X-582500Y808440D01*
Y792967D01*
X-667810Y707657D01*
X-675546Y696080D01*
X-678263Y682423D01*
Y672205D01*
X-695767Y654700D01*
X-707500Y659561D01*
Y695658D01*
X-702031Y703844D01*
X-699314Y717500D01*
Y1020000D01*
X-650000D01*
Y1160000D01*
X-820000D01*
Y1020000D01*
X-770686D01*
Y745000D01*
X-832500D01*
Y615000D01*
X-752061D01*
X-747200Y603267D01*
X-749717Y600750D01*
X-760000Y595000D01*
Y595000D01*
X-760001Y595000D01*
X-885000D01*
Y515467D01*
X-903267Y497200D01*
X-915000Y502061D01*
Y595000D01*
X-996058D01*
X-1000000Y595784D01*
X-1000001Y595784D01*
X-1025607D01*
X-1062404Y632581D01*
X-1057544Y644314D01*
X-987500D01*
Y615000D01*
X-862500D01*
Y745000D01*
X-987500D01*
Y715686D01*
X-1064718D01*
X-1099500Y750467D01*
Y771935D01*
X-1108634Y793987D01*
X-1125513Y810866D01*
X-1147565Y820000D01*
X-1171435D01*
X-1193487Y810866D01*
X-1210365Y793987D01*
X-1214088Y785000D01*
X-1229020D01*
Y800000D01*
Y1103884D01*
X-1137904Y1195000D01*
X-1040000D01*
Y1214020D01*
X-611116D01*
X-570085Y1172989D01*
D02*
G37*
G36*
X-1263224Y328533D02*
Y307066D01*
X-1254090Y285013D01*
X-1241025Y271949D01*
X-1240749Y258712D01*
X-1241678Y256238D01*
X-1241684Y256234D01*
X-1330234Y167685D01*
X-1337969Y156107D01*
X-1340686Y142451D01*
Y126968D01*
X-1424800Y42853D01*
X-1437500Y48114D01*
Y165000D01*
Y291054D01*
X-1429740Y294362D01*
X-1424800Y294948D01*
X-1408987Y279135D01*
X-1386935Y270000D01*
X-1363065D01*
X-1341013Y279135D01*
X-1324135Y296013D01*
X-1315000Y318065D01*
Y341935D01*
X-1318552Y350509D01*
X-1310066Y363210D01*
X-1297901D01*
X-1263224Y328533D01*
D02*
G37*
G36*
X-2895000Y395000D02*
X-2760000D01*
Y395000D01*
X-2747500Y394517D01*
Y315000D01*
Y215000D01*
Y115000D01*
Y-1572D01*
X-2760200Y-6833D01*
X-2777100Y10067D01*
Y22300D01*
X-2850000D01*
X-2922900D01*
Y-26896D01*
X-2935600Y-32157D01*
X-2949021Y-18737D01*
Y378884D01*
X-2913884Y414021D01*
X-2895000D01*
Y395000D01*
D02*
G37*
G36*
X-1658480Y881960D02*
Y862500D01*
X-1654599Y842991D01*
X-1643548Y826452D01*
X-1608401Y791305D01*
X-1591862Y780254D01*
X-1580115Y777917D01*
X-1577433Y764435D01*
X-1579231Y763233D01*
X-1637734Y704731D01*
X-1645469Y693153D01*
X-1648186Y679497D01*
Y470502D01*
X-1645469Y456846D01*
X-1637734Y445269D01*
X-1617231Y424766D01*
X-1605654Y417030D01*
X-1597500Y415408D01*
Y365000D01*
Y265000D01*
Y165000D01*
Y65000D01*
Y-28554D01*
X-1605259Y-31861D01*
X-1610200Y-32447D01*
X-1626013Y-16634D01*
X-1648065Y-7500D01*
X-1671935D01*
X-1693987Y-16634D01*
X-1710866Y-33513D01*
X-1720000Y-55565D01*
Y-63503D01*
X-1720812Y-64315D01*
X-1769501D01*
X-1774761Y-51615D01*
X-1769134Y-45987D01*
X-1760000Y-23935D01*
Y-66D01*
X-1769134Y21987D01*
X-1784314Y37167D01*
Y578002D01*
X-1787031Y591658D01*
X-1794766Y603236D01*
X-1949797Y758267D01*
X-1944937Y770000D01*
X-1682500D01*
Y846552D01*
X-1681815Y850000D01*
Y875218D01*
X-1670213Y886820D01*
X-1658480Y881960D01*
D02*
G37*
G36*
X-2502500Y929999D02*
Y770000D01*
X-2307900D01*
Y764600D01*
X-2301117D01*
X-2300469Y761344D01*
X-2292734Y749767D01*
X-2232734Y689766D01*
X-2221156Y682031D01*
X-2207500Y679314D01*
X-2193844Y682031D01*
X-2182266Y689766D01*
X-2174531Y701344D01*
X-2171814Y715000D01*
X-2174531Y728656D01*
X-2182266Y740234D01*
X-2200299Y758267D01*
X-2195439Y770000D01*
X-2052091D01*
X-2050469Y761846D01*
X-2042734Y750269D01*
X-1855686Y563221D01*
Y37167D01*
X-1870865Y21987D01*
X-1880000Y-66D01*
Y-23935D01*
X-1870865Y-45987D01*
X-1865238Y-51615D01*
X-1870499Y-64315D01*
X-2540257D01*
X-2545117Y-52581D01*
X-2537266Y-44731D01*
X-2529531Y-33154D01*
X-2526814Y-19497D01*
Y569497D01*
X-2529531Y583153D01*
X-2537266Y594730D01*
X-2567769Y625233D01*
X-2579347Y632969D01*
X-2582100Y633517D01*
Y640400D01*
X-2587501D01*
Y685000D01*
X-2744137D01*
X-2754600Y690400D01*
X-2761363Y700299D01*
X-2762031Y703656D01*
X-2769766Y715234D01*
X-2781344Y722969D01*
X-2795000Y725686D01*
X-2808656Y722969D01*
X-2818656Y716288D01*
X-2826752Y726152D01*
X-2613884Y939020D01*
X-2511383D01*
X-2502500Y929999D01*
D02*
G37*
G36*
X-668072Y-310767D02*
X-672932Y-322500D01*
X-781637D01*
X-792100Y-317100D01*
D01*
X-799523Y-307474D01*
X-802901Y-290491D01*
X-813952Y-273952D01*
X-830491Y-262901D01*
X-850000Y-259021D01*
X-869509Y-262901D01*
X-886048Y-273952D01*
X-887961Y-275865D01*
X-899012Y-292404D01*
X-901671Y-305772D01*
X-915195Y-310208D01*
X-952100Y-273304D01*
Y-210980D01*
X-890000D01*
X-870491Y-207099D01*
X-853952Y-196048D01*
X-842901Y-179509D01*
X-839020Y-160000D01*
X-839572Y-157227D01*
X-827868Y-150971D01*
X-668072Y-310767D01*
D02*
G37*
G36*
X-2139884Y-147419D02*
X-2192734Y-200270D01*
X-2200470Y-211847D01*
X-2202092Y-220001D01*
X-2502500D01*
Y-377000D01*
X-2543000D01*
Y-459021D01*
X-2554733Y-463881D01*
X-2587662Y-430952D01*
X-2604201Y-419901D01*
X-2623710Y-416021D01*
X-2627000D01*
Y-377000D01*
X-2629020D01*
Y-320000D01*
X-2632901Y-300491D01*
X-2643952Y-283952D01*
X-2683952Y-243952D01*
X-2700491Y-232901D01*
X-2720000Y-229021D01*
X-2752500D01*
Y-190000D01*
X-2771871D01*
X-2782500Y-185000D01*
Y-165686D01*
X-2742500D01*
X-2728844Y-162969D01*
X-2717267Y-155234D01*
X-2697719Y-135686D01*
X-2144744D01*
X-2139884Y-147419D01*
D02*
G37*
G36*
X-1984198Y-391734D02*
X-1995234Y-402769D01*
X-2002969Y-414346D01*
X-2004591Y-422500D01*
X-2110000D01*
Y-452018D01*
X-2127009Y-455401D01*
X-2143548Y-466452D01*
X-2173116Y-496020D01*
X-2437000D01*
Y-380000D01*
X-1989059D01*
X-1984198Y-391734D01*
D02*
G37*
G36*
X-464419Y-514419D02*
X-457804Y-518840D01*
X-450000Y-520392D01*
X355000D01*
Y-544314D01*
X-257249D01*
X-270905Y-547031D01*
X-282482Y-554766D01*
X-299530Y-571814D01*
X-507500D01*
Y-489299D01*
X-494800Y-484038D01*
X-464419Y-514419D01*
D02*
G37*
G36*
X-2002969Y-560654D02*
X-1995234Y-572231D01*
X-1914731Y-652734D01*
X-1911639Y-654800D01*
X-1915491Y-667500D01*
X-1960000D01*
Y-808068D01*
X-1960881Y-812500D01*
Y-866619D01*
X-1963492D01*
X-1981050Y-870111D01*
X-1995936Y-880057D01*
X-2062300Y-946421D01*
X-2075000Y-941160D01*
Y-667500D01*
X-2315000D01*
Y-952649D01*
X-2327410Y-958200D01*
X-2337044Y-948566D01*
Y-830935D01*
X-2340536Y-813377D01*
X-2350482Y-798492D01*
X-2407912Y-741062D01*
X-2417374Y-734740D01*
X-2437000Y-715114D01*
Y-640000D01*
X-2526600D01*
Y-634600D01*
X-2539743D01*
X-2540901Y-628780D01*
X-2551952Y-612241D01*
X-2555638Y-608556D01*
X-2549381Y-596851D01*
X-2543710Y-597979D01*
X-2152000D01*
X-2132491Y-594099D01*
X-2115952Y-583048D01*
X-2086383Y-553480D01*
X-2060000D01*
X-2055074Y-552500D01*
X-2004591D01*
X-2002969Y-560654D01*
D02*
G37*
G36*
X355000Y-632300D02*
X355000Y-644999D01*
X355000D01*
Y-645001D01*
X355000D01*
Y-671814D01*
X-458221D01*
X-475116Y-654919D01*
X-470256Y-643186D01*
X-284749D01*
X-271092Y-640469D01*
X-259515Y-632734D01*
X-242467Y-615686D01*
X355000D01*
Y-632300D01*
D02*
G37*
G36*
X-963959Y-870234D02*
X-952382Y-877969D01*
X-938725Y-880686D01*
X-719142D01*
X-714281Y-892419D01*
X-773431Y-951569D01*
X-780614Y-962319D01*
X-783137Y-975000D01*
Y-1032974D01*
X-821550Y-1071388D01*
X-1149363Y-743575D01*
Y-701423D01*
X-1137630Y-696563D01*
X-963959Y-870234D01*
D02*
G37*
G36*
X-1393293Y-553196D02*
X-1382542Y-560379D01*
X-1369861Y-562901D01*
X-1340499D01*
X-1247634Y-655767D01*
X-1252494Y-667500D01*
X-1435000D01*
Y-957500D01*
X-1195000D01*
Y-808255D01*
X-1183267Y-803395D01*
X-894965Y-1091697D01*
X-901221Y-1103402D01*
X-909200Y-1101814D01*
X-1081016D01*
X-1125564Y-1057267D01*
X-1137141Y-1049531D01*
X-1150797Y-1046815D01*
X-1404314D01*
Y-1033150D01*
X-1407030Y-1019494D01*
X-1414766Y-1007916D01*
X-1470416Y-952266D01*
X-1481993Y-944531D01*
X-1495650Y-941814D01*
X-1544600D01*
Y-923381D01*
X-1520000D01*
X-1502442Y-919889D01*
X-1487557Y-909943D01*
X-1477611Y-895058D01*
X-1474118Y-877500D01*
X-1477611Y-859942D01*
X-1487557Y-845057D01*
X-1502442Y-835111D01*
X-1520000Y-831618D01*
X-1544600D01*
Y-825200D01*
X-1595000D01*
Y-799800D01*
X-1544600D01*
Y-662100D01*
X-1552452D01*
X-1552611Y-661302D01*
X-1562557Y-646417D01*
X-1616417Y-592557D01*
X-1619852Y-590262D01*
X-1657414Y-552700D01*
X-1652153Y-540000D01*
X-1520000D01*
Y-443081D01*
X-1508267Y-438221D01*
X-1393293Y-553196D01*
D02*
G37*
G36*
X2602564Y1216937D02*
X2676874Y1145808D01*
X2747081Y1070628D01*
X2812965Y991631D01*
X2874319Y909067D01*
X2930950Y823194D01*
X2982680Y734283D01*
X3029347Y642612D01*
X3070804Y548471D01*
X3106920Y452155D01*
X3137582Y353966D01*
X3162694Y254213D01*
X3182178Y153210D01*
X3195970Y51274D01*
X3200000Y-0D01*
X3195970Y-51275D01*
X3182178Y-153211D01*
X3162694Y-254214D01*
X3137582Y-353967D01*
X3106920Y-452155D01*
X3070804Y-548472D01*
X3029347Y-642613D01*
X2982681Y-734283D01*
X2930950Y-823194D01*
X2874319Y-909067D01*
X2812965Y-991631D01*
X2747081Y-1070628D01*
X2676874Y-1145809D01*
X2602565Y-1216938D01*
X2591935Y-1226027D01*
X2580400Y-1220714D01*
Y-1142701D01*
X2262701D01*
Y-1275400D01*
X2514444D01*
X2518733Y-1288100D01*
X2442584Y-1346158D01*
X2400000Y-1375000D01*
X99561D01*
X94701Y-1363267D01*
X158968Y-1299000D01*
X275500D01*
Y-1170980D01*
X1400000D01*
X1419509Y-1167099D01*
X1436048Y-1156048D01*
X2011048Y-581048D01*
X2022099Y-564509D01*
X2025979Y-545000D01*
Y1000000D01*
X2575000D01*
Y1225331D01*
X2586535Y1230644D01*
X2602564Y1216937D01*
D02*
G37*
G36*
X-145500Y-991467D02*
Y-1236932D01*
X-194038D01*
X-205353Y-1239183D01*
X-214946Y-1245592D01*
X-220767Y-1251413D01*
X-232500Y-1246553D01*
Y-941000D01*
X-352637D01*
X-401218Y-892419D01*
X-396358Y-880686D01*
X-256281D01*
X-145500Y-991467D01*
D02*
G37*
G36*
X-399500Y-987862D02*
Y-1246904D01*
X-412010Y-1253820D01*
X-423325Y-1251569D01*
X-466175D01*
X-468400Y-1252011D01*
X-480450Y-1243462D01*
X-481100Y-1242120D01*
Y-1130980D01*
X-470000D01*
X-450491Y-1127099D01*
X-433952Y-1116048D01*
X-422901Y-1099509D01*
X-419020Y-1080000D01*
X-422901Y-1060491D01*
X-433952Y-1043952D01*
X-450491Y-1032901D01*
X-470000Y-1029021D01*
X-481100D01*
Y-935600D01*
X-469420Y-933137D01*
X-454225D01*
X-399500Y-987862D01*
D02*
G37*
G36*
X-862700Y-1267500D02*
X-862300Y-1280034D01*
Y-1292500D01*
X-818755D01*
X-815800Y-1293088D01*
X-811970D01*
X-741791Y-1363267D01*
X-746651Y-1375000D01*
X-1195000D01*
Y-1274581D01*
X-1193165Y-1273821D01*
X-1182300Y-1270948D01*
X-1168919Y-1279889D01*
X-1151360Y-1283381D01*
X-1133802Y-1279889D01*
X-1119955Y-1270637D01*
X-909200D01*
X-896519Y-1268114D01*
X-895600Y-1267500D01*
X-862700D01*
D02*
G37*
G36*
X-3050980Y562652D02*
Y400000D01*
Y-39853D01*
X-3047099Y-59362D01*
X-3036048Y-75901D01*
X-2980901Y-131048D01*
X-2964362Y-142099D01*
X-2944853Y-145979D01*
X-2917500D01*
Y-185000D01*
X-2898129D01*
X-2887500Y-190000D01*
Y-324137D01*
X-2892900Y-334600D01*
X-2892901Y-334600D01*
X-2892900Y-334601D01*
Y-360270D01*
X-2923750D01*
X-2943259Y-364151D01*
X-2959798Y-375202D01*
X-2961048Y-376452D01*
X-2972099Y-392991D01*
X-2975980Y-412500D01*
X-2972099Y-432009D01*
X-2961048Y-448548D01*
X-2944509Y-459599D01*
X-2925000Y-463480D01*
X-2918715Y-462229D01*
X-2892900D01*
Y-485400D01*
X-2852049D01*
X-2849599Y-497720D01*
X-2838548Y-514259D01*
X-2733759Y-619048D01*
X-2721408Y-627300D01*
X-2725260Y-640000D01*
X-2733000D01*
Y-780000D01*
X-2727979D01*
Y-795500D01*
X-2724099Y-815009D01*
X-2720000Y-821144D01*
Y-942500D01*
X-2670881D01*
Y-975000D01*
X-2667389Y-992558D01*
X-2657443Y-1007443D01*
X-2607443Y-1057443D01*
X-2592558Y-1067389D01*
X-2575000Y-1070882D01*
X-2075992D01*
X-2067700Y-1069232D01*
X-2055000Y-1079206D01*
Y-1083032D01*
X-2049548Y-1103379D01*
X-2039016Y-1121621D01*
X-2024121Y-1136516D01*
X-2005879Y-1147048D01*
X-1985532Y-1152500D01*
X-1964468D01*
X-1944121Y-1147048D01*
X-1925879Y-1136516D01*
X-1910984Y-1121621D01*
X-1902871Y-1107569D01*
X-1890171Y-1110971D01*
Y-1130711D01*
X-1886678Y-1148269D01*
X-1876732Y-1163154D01*
X-1779943Y-1259943D01*
X-1765058Y-1269889D01*
X-1747500Y-1273382D01*
X-1468639D01*
X-1451081Y-1269889D01*
X-1447700Y-1267630D01*
X-1435000Y-1274418D01*
Y-1375000D01*
X-2075000D01*
Y-1217500D01*
X-2315000D01*
Y-1375000D01*
X-2400000D01*
X-2442584Y-1346158D01*
X-2524386Y-1283790D01*
X-2602565Y-1216937D01*
X-2676875Y-1145809D01*
X-2747082Y-1070628D01*
X-2812966Y-991631D01*
X-2874320Y-909067D01*
X-2930951Y-823194D01*
X-2982681Y-734283D01*
X-3029348Y-642613D01*
X-3070804Y-548471D01*
X-3106920Y-452155D01*
X-3137583Y-353967D01*
X-3162695Y-254214D01*
X-3182178Y-153211D01*
X-3195970Y-51275D01*
X-3200000Y-0D01*
X-3200000Y0D01*
X-3195970Y51274D01*
X-3182178Y153211D01*
X-3162695Y254214D01*
X-3137583Y353966D01*
X-3106920Y452155D01*
X-3070804Y548471D01*
X-3063408Y565268D01*
X-3050980Y562652D01*
D02*
G37*
%LPC*%
G36*
X870000Y1175000D02*
X750000D01*
Y1075000D01*
X774314D01*
Y1050000D01*
X750000D01*
Y930000D01*
X870000D01*
Y1050000D01*
X845686D01*
Y1075000D01*
X870000D01*
Y1175000D01*
D02*
G37*
G36*
X1100000Y-449021D02*
X1080491Y-452901D01*
X1063952Y-463952D01*
X1063202Y-464702D01*
X1052151Y-481241D01*
X1048270Y-500750D01*
Y-582100D01*
X1026100D01*
Y-629800D01*
X1170900D01*
Y-582100D01*
X1150230D01*
Y-503770D01*
X1150979Y-500000D01*
X1147099Y-480491D01*
X1136048Y-463952D01*
X1119509Y-452901D01*
X1100000Y-449021D01*
D02*
G37*
G36*
X1170900Y-655200D02*
X1026100D01*
Y-702900D01*
Y-747800D01*
X1170900D01*
Y-702900D01*
Y-655200D01*
D02*
G37*
G36*
Y-891200D02*
X1111200D01*
Y-938900D01*
X1170900D01*
Y-891200D01*
D02*
G37*
G36*
X-1137700Y990400D02*
X-1215400D01*
Y927700D01*
X-1137700D01*
Y990400D01*
D02*
G37*
G36*
X-1034600D02*
X-1112300D01*
Y915000D01*
Y839600D01*
X-1034600D01*
Y879314D01*
X-1005000D01*
X-991344Y882031D01*
X-979766Y889766D01*
X-972031Y901344D01*
X-969314Y915000D01*
X-972031Y928656D01*
X-979766Y940234D01*
X-991344Y947969D01*
X-1005000Y950686D01*
X-1034600D01*
Y990400D01*
D02*
G37*
G36*
X-1137700Y902300D02*
X-1215400D01*
Y839600D01*
X-1137700D01*
Y902300D01*
D02*
G37*
G36*
X-2845000Y180686D02*
X-2858656Y177969D01*
X-2870234Y170234D01*
X-2877969Y158656D01*
X-2880686Y145000D01*
Y110400D01*
X-2922900D01*
Y47700D01*
X-2850000D01*
X-2777100D01*
Y110400D01*
X-2809314D01*
Y145000D01*
X-2812031Y158656D01*
X-2819766Y170234D01*
X-2831344Y177969D01*
X-2845000Y180686D01*
D02*
G37*
G36*
X2500000Y-849020D02*
X2480491Y-852901D01*
X2463952Y-863952D01*
X2452901Y-880491D01*
X2449021Y-900000D01*
Y-984600D01*
X2300980D01*
Y-900000D01*
X2297099Y-880491D01*
X2286048Y-863952D01*
X2269509Y-852901D01*
X2250000Y-849020D01*
X2230491Y-852901D01*
X2213952Y-863952D01*
X2202901Y-880491D01*
X2199020Y-900000D01*
Y-984600D01*
X2050980D01*
Y-900000D01*
X2047099Y-880491D01*
X2036048Y-863952D01*
X2019509Y-852901D01*
X2000000Y-849020D01*
X1980491Y-852901D01*
X1963952Y-863952D01*
X1952901Y-880491D01*
X1949020Y-900000D01*
Y-984600D01*
X1919600D01*
Y-1117301D01*
X2250001D01*
X2580400D01*
Y-984600D01*
X2550980D01*
Y-900000D01*
X2547099Y-880491D01*
X2536048Y-863952D01*
X2519509Y-852901D01*
X2500000Y-849020D01*
D02*
G37*
G36*
X2237301Y-1142701D02*
X1919600D01*
Y-1275400D01*
X2237301D01*
Y-1142701D01*
D02*
G37*
%LPD*%
D10*
X192000Y-1120000D02*
D03*
X-62000D02*
D03*
X-316000D02*
D03*
X-570000D02*
D03*
D11*
X2250000Y-1130000D02*
D03*
Y1140000D02*
D03*
D12*
X-1315000Y-812500D02*
D03*
Y-1362500D02*
D03*
X-2195000D02*
D03*
Y-812500D02*
D03*
D13*
X-1595000D02*
D03*
X-1675000D02*
D03*
X-1755000D02*
D03*
X-1835000D02*
D03*
X-1915000D02*
D03*
D14*
X-1717500Y850000D02*
D03*
X-1767500D02*
D03*
X-1817500D02*
D03*
X-1867500D02*
D03*
X-1917500D02*
D03*
X-1967500D02*
D03*
X-2017500D02*
D03*
X-2067500D02*
D03*
X-2117500D02*
D03*
X-2167500D02*
D03*
X-2217500D02*
D03*
X-2267500D02*
D03*
X-2317500D02*
D03*
X-2367500D02*
D03*
X-2417500D02*
D03*
X-2467500D02*
D03*
Y-300000D02*
D03*
X-2417500D02*
D03*
X-2367500D02*
D03*
X-2317500D02*
D03*
X-2267500D02*
D03*
X-2217500D02*
D03*
X-2167500D02*
D03*
X-2117500D02*
D03*
X-2067500D02*
D03*
X-2017500D02*
D03*
X-1967500D02*
D03*
X-1917500D02*
D03*
X-1867500D02*
D03*
X-1817500D02*
D03*
X-1767500D02*
D03*
X-1717500D02*
D03*
D15*
X-2667500Y650000D02*
D03*
Y600000D02*
D03*
Y550000D02*
D03*
Y500000D02*
D03*
Y450000D02*
D03*
Y400000D02*
D03*
Y350000D02*
D03*
Y300000D02*
D03*
Y250000D02*
D03*
Y200000D02*
D03*
Y150000D02*
D03*
Y100000D02*
D03*
Y50000D02*
D03*
Y-0D02*
D03*
Y-50000D02*
D03*
Y-100000D02*
D03*
X-1517500D02*
D03*
Y-50000D02*
D03*
Y-0D02*
D03*
Y50000D02*
D03*
Y100000D02*
D03*
Y150000D02*
D03*
Y200000D02*
D03*
Y250000D02*
D03*
Y300000D02*
D03*
Y350000D02*
D03*
Y400000D02*
D03*
Y450000D02*
D03*
Y500000D02*
D03*
Y550000D02*
D03*
Y600000D02*
D03*
Y650000D02*
D03*
D16*
X-1345000Y-125000D02*
D03*
Y-255000D02*
D03*
X810000Y1125000D02*
D03*
Y1255000D02*
D03*
D17*
X-872500Y-737500D02*
D03*
X-572500D02*
D03*
X-872500Y-537500D02*
D03*
X-572500D02*
D03*
D18*
X520000Y1260000D02*
D03*
X370000D02*
D03*
X-717500Y-390000D02*
D03*
X-867500D02*
D03*
X-2375000Y1110000D02*
D03*
X-2225000D02*
D03*
X1825000Y1260000D02*
D03*
X1675000D02*
D03*
X-1605000Y1000000D02*
D03*
X-1455000D02*
D03*
X-2375000Y990000D02*
D03*
X-2225000D02*
D03*
X-1590000Y-472500D02*
D03*
X-1740000D02*
D03*
X-2650000Y-875000D02*
D03*
X-2500000D02*
D03*
D19*
X412500Y1120000D02*
D03*
Y970000D02*
D03*
X542500Y1120000D02*
D03*
Y970000D02*
D03*
X-1280000Y565000D02*
D03*
Y715000D02*
D03*
X-2850000Y35000D02*
D03*
Y-115000D02*
D03*
X-2827500Y465000D02*
D03*
Y615000D02*
D03*
X-2820000Y-260000D02*
D03*
Y-410000D02*
D03*
D20*
X-70000Y880000D02*
D03*
X-20000D02*
D03*
X30000D02*
D03*
X80000D02*
D03*
X130000D02*
D03*
X180000D02*
D03*
X-70000Y1280000D02*
D03*
X-20000D02*
D03*
X30000D02*
D03*
X80000D02*
D03*
X130000D02*
D03*
X180000D02*
D03*
D21*
X252500Y955000D02*
D03*
Y1005000D02*
D03*
Y1055000D02*
D03*
Y1105000D02*
D03*
Y1155000D02*
D03*
Y1205000D02*
D03*
X-142500Y955000D02*
D03*
Y1005000D02*
D03*
Y1055000D02*
D03*
Y1105000D02*
D03*
Y1155000D02*
D03*
Y1205000D02*
D03*
D22*
X55000Y1080000D02*
D03*
D23*
X-1012500Y-275000D02*
D03*
Y25000D02*
D03*
X-1212500Y-275000D02*
D03*
Y25000D02*
D03*
D24*
X-2680000Y-710000D02*
D03*
X-2585000D02*
D03*
X-2490000D02*
D03*
Y-447000D02*
D03*
X-2680000D02*
D03*
D25*
X-1892500Y-487500D02*
D03*
X-2047500D02*
D03*
X-455000Y910000D02*
D03*
X-300000D02*
D03*
X-977500Y530000D02*
D03*
X-822500D02*
D03*
X-770000Y680000D02*
D03*
X-925000D02*
D03*
X417500Y-710000D02*
D03*
X572500D02*
D03*
X417500Y-580000D02*
D03*
X572500D02*
D03*
D26*
X1098500Y-878500D02*
D03*
X822500D02*
D03*
X1098500Y-760500D02*
D03*
X822500D02*
D03*
Y-642500D02*
D03*
X1098500D02*
D03*
D27*
X-1125000Y1265000D02*
D03*
Y915000D02*
D03*
X-735000Y1090000D02*
D03*
D28*
X-815800Y-1262500D02*
D03*
Y-1212500D02*
D03*
Y-1162500D02*
D03*
Y-1112500D02*
D03*
X-909200Y-1137500D02*
D03*
Y-1237500D02*
D03*
Y-1187500D02*
D03*
D29*
X810000Y990000D02*
D03*
Y830000D02*
D03*
D30*
X-2060000Y1130000D02*
D03*
Y1280000D02*
D03*
X-300000Y1260000D02*
D03*
Y1110000D02*
D03*
X-1570000Y1280000D02*
D03*
Y1130000D02*
D03*
D31*
X-1760050Y1142550D02*
D03*
X-1897450D02*
D03*
Y1249950D02*
D03*
X-1760000Y1250000D02*
D03*
D32*
X-1509038Y1362500D02*
X-1496538Y1350000D01*
X-2120962Y1362500D02*
X-1509038D01*
X-2229231Y1254231D02*
X-2120962Y1362500D01*
X-1225000Y1350000D02*
X-1140000Y1265000D01*
X-1496538Y1350000D02*
X-1225000D01*
X-1151360Y-1237500D02*
X-909200D01*
X-2229231Y1253269D02*
Y1254231D01*
X-2372500Y1110000D02*
X-2229231Y1253269D01*
X-2375000Y1110000D02*
X-2372500D01*
X-295000Y795000D02*
X-282823D01*
X-245323Y832500D01*
X-213415D01*
X-197500Y848415D01*
Y900000D01*
X-150000Y777500D02*
X-70000Y857500D01*
X-150000Y775000D02*
Y777500D01*
X-682500Y-1362500D02*
X45000D01*
X-122117Y1280000D02*
X-70000D01*
X-137617Y1295500D02*
X-122117Y1280000D01*
X-152500Y1295500D02*
X-137617D01*
X185000Y1262500D02*
X206449D01*
X185000D02*
Y1275000D01*
X180000Y1280000D02*
X185000Y1275000D01*
X-1514135Y-385491D02*
X-1369861Y-529765D01*
X-1651156Y-217000D02*
X-1514135Y-354021D01*
X-1369861Y-529765D02*
X-1326773D01*
X-1182500Y-757300D02*
Y-674038D01*
X-1514135Y-385491D02*
Y-354021D01*
X-1326773Y-529765D02*
X-1182500Y-674038D01*
X-1659415Y-217000D02*
X-1651156D01*
X-1668915Y-207500D02*
X-1659415Y-217000D01*
X-1795962Y-207500D02*
X-1668915D01*
X-675000Y-900000D02*
X-440500D01*
X-750000Y-975000D02*
X-675000Y-900000D01*
X-440500D02*
X-316000Y-1024500D01*
X-750000Y-1046700D02*
Y-975000D01*
X-1815000Y-226539D02*
X-1795962Y-207500D01*
X-1815000Y-297501D02*
Y-226539D01*
X-827300Y-1112500D02*
X-815800D01*
X-1182500Y-757300D02*
X-827300Y-1112500D01*
X-815800D02*
X-804300D01*
X-1817500Y-300000D02*
X-1815000Y-297501D01*
X-397500Y1147500D02*
X-335000D01*
X-300000Y1112500D01*
X-400000Y1150000D02*
X-397500Y1147500D01*
X-300000Y1110000D02*
Y1112500D01*
X-70000Y857500D02*
Y880000D01*
X80000Y1080000D02*
X105000Y1055000D01*
X55000Y1080000D02*
X80000D01*
X105000Y1130000D02*
X130000Y1155000D01*
X105000Y1055000D02*
Y1130000D01*
Y1055000D02*
X252500D01*
X130000Y1155000D02*
X252500D01*
X-172500Y925000D02*
Y950000D01*
X-197500Y900000D02*
X-172500Y925000D01*
X-167500Y955000D02*
X-142500D01*
X-172500Y950000D02*
X-167500Y955000D01*
X252500Y1105000D02*
X300000D01*
X300000Y1105000D01*
X308462D01*
X332500Y1129038D01*
Y1225000D02*
X367500Y1260000D01*
X332500Y1129038D02*
Y1225000D01*
X367500Y1260000D02*
X370000D01*
X252500Y1005000D02*
X335000D01*
X370000Y970000D01*
X-270000Y1005000D02*
X-142500D01*
X-300000Y975000D02*
X-270000Y1005000D01*
X-300000Y910000D02*
Y975000D01*
X-198462Y1155000D02*
X-142500D01*
X-265000Y1221538D02*
X-198462Y1155000D01*
X-265000Y1221538D02*
Y1225000D01*
X-300000Y1260000D02*
X-265000Y1225000D01*
X-142500Y1155000D02*
X-142500Y1155000D01*
X-113000Y-1266500D02*
X-62000Y-1215500D01*
Y-1120000D01*
X-316000D02*
Y-1024500D01*
X-804300Y-1112500D02*
X-801800Y-1110000D01*
Y-1098500D01*
X-750000Y-1046700D01*
D33*
X-815800Y-1212500D02*
X-735000D01*
X-815800Y-1262500D02*
X-799300D01*
X-699300Y-1362500D01*
X-682500D01*
X-760338Y-1139500D02*
X-701355Y-1080517D01*
X-763875Y-1139500D02*
X-760338D01*
X-776874Y-1152499D02*
X-763875Y-1139500D01*
X-778236Y-1152499D02*
X-776874D01*
X-791800Y-1155000D02*
X-780737D01*
X-799300Y-1162500D02*
X-791800Y-1155000D01*
X-816188Y-1162500D02*
X-799300D01*
X-780737Y-1155000D02*
X-778236Y-1152499D01*
X-663500Y-1114200D02*
Y-1097662D01*
X-680645Y-1080517D02*
X-663500Y-1097662D01*
X-701355Y-1080517D02*
X-680645D01*
D34*
X2000000Y-1025000D02*
X2105000Y-1130000D01*
X2250000D01*
X2395000D01*
X2500000Y-1025000D01*
X-1892500Y-487500D02*
Y-485000D01*
Y-490000D02*
Y-487500D01*
X-1839660Y-807840D02*
Y-642500D01*
Y-807840D02*
X-1835000Y-812500D01*
X-1854660Y-627500D02*
X-1839660Y-642500D01*
X-1917500Y-375503D02*
Y-300000D01*
X-1970000Y-428002D02*
X-1917500Y-375503D01*
X-1970000Y-546997D02*
Y-428002D01*
X-1889498Y-627500D02*
X-1854660D01*
X-1970000Y-546997D02*
X-1889498Y-627500D01*
X-1740000Y-684926D02*
Y-627051D01*
X-1789551Y-577500D02*
X-1740000Y-627051D01*
X-1745000Y-689926D02*
X-1740000Y-684926D01*
X-1789551Y-577500D02*
X-1789551D01*
X-1840000Y-435000D02*
Y-403003D01*
X-1745000Y-802500D02*
Y-689926D01*
X-1755000Y-812500D02*
X-1745000Y-802500D01*
X-1862500Y-457500D02*
X-1840000Y-435000D01*
X-1867500Y-375503D02*
X-1840000Y-403003D01*
X-1865000Y-457500D02*
X-1862500D01*
X-1867500Y-375503D02*
Y-300000D01*
X-1892500Y-485000D02*
X-1865000Y-457500D01*
Y-517500D02*
X-1849551D01*
X-1789551Y-577500D01*
X-1892500Y-490000D02*
X-1865000Y-517500D01*
X-1495650Y-1167500D02*
X-1460650Y-1132500D01*
X-1815000Y-999155D02*
X-1762432Y-1051723D01*
X-1835000Y-812500D02*
X-1825000Y-822500D01*
X-1095797Y-1137500D02*
X-909200D01*
X-1613210Y-1167500D02*
X-1495650D01*
Y-977500D02*
X-1440000Y-1033150D01*
X-1815000Y-999155D02*
Y-966139D01*
X-1708277Y-1001723D02*
X-1665851Y-1044149D01*
X-1825000Y-956139D02*
Y-822500D01*
X-1765000Y-978445D02*
X-1741722Y-1001723D01*
X-1762432Y-1051723D02*
X-1728988D01*
X-1765000Y-953592D02*
X-1765000Y-953592D01*
X-1440000Y-1064926D02*
Y-1033150D01*
X-1422426Y-1082500D02*
X-1150797D01*
X-1095797Y-1137500D01*
X-1574350Y-977500D02*
X-1495650D01*
X-1728988Y-1051723D02*
X-1613210Y-1167500D01*
X-1765000Y-953592D02*
Y-822500D01*
X-1665851Y-1044149D02*
X-1640999D01*
X-1440000Y-1064926D02*
X-1422426Y-1082500D01*
X-1116508Y-1187500D02*
X-909200D01*
X-1765000Y-978445D02*
Y-953592D01*
X-1640999Y-1044149D02*
X-1574350Y-977500D01*
X-1460650Y-1132500D02*
X-1171508D01*
X-1116508Y-1187500D01*
X-1765000Y-822500D02*
X-1755000Y-812500D01*
X-1741722Y-1001723D02*
X-1708277D01*
X-1825000Y-956139D02*
X-1815000Y-966139D01*
X-2267500Y775000D02*
X-2207500Y715000D01*
X-2267500Y775000D02*
Y850000D01*
Y924497D01*
X-857500Y350000D02*
X-300000Y907500D01*
X-642577Y682423D02*
X-527500Y797500D01*
X-1016997Y350000D02*
X-857500D01*
X45000Y-1362500D02*
X192000Y-1215500D01*
X-1125000Y915000D02*
X-1005000D01*
X-1125000Y915000D02*
X-1125000Y915000D01*
X-1717500Y895000D02*
X-1712500D01*
X-1717500Y-345001D02*
X-1687501Y-375000D01*
X-1717500Y-309572D02*
X-1679500D01*
X-1717500D02*
Y-300000D01*
Y-345001D02*
Y-309572D01*
X-1280000Y562500D02*
X-1247500Y530000D01*
X-1245000D01*
X-1242653Y527654D01*
X-1280000Y562500D02*
Y565000D01*
X-1242653Y527654D02*
X-1197653D01*
X-1190000Y520000D01*
X-2795000Y647500D02*
Y690000D01*
X-2827500Y615000D02*
X-2795000Y647500D01*
X-2850000Y35000D02*
X-2845000Y40000D01*
Y145000D01*
X-1820000Y-12000D02*
Y578002D01*
X-2101997Y-160000D02*
X-1593700D01*
X-1563865Y-189835D01*
X-1550335D01*
X-2017500Y775502D02*
X-1820000Y578002D01*
X-2667500Y-100000D02*
X-1706030D01*
X-2712501D02*
X-2667500D01*
X-1706030D02*
X-1673530Y-67500D01*
X-2167500Y-225503D02*
X-2101997Y-160000D01*
X-2017500Y775502D02*
Y850000D01*
X-1355549Y-241530D02*
Y-228000D01*
X-1330000Y-270000D02*
Y-267079D01*
X-1355549Y-241530D02*
X-1330000Y-267079D01*
X-1673530Y-67500D02*
X-1660000D01*
X-1460000Y-275000D02*
X-1438000Y-297000D01*
X-1460000Y-275000D02*
Y-112500D01*
X-1422501Y-5315D02*
X-1305000Y112186D01*
Y142451D02*
X-1216451Y231000D01*
X-1305000Y112186D02*
Y142451D01*
X-1337725Y-446000D02*
X-938725Y-845000D01*
X-1386451Y-446000D02*
X-1337725D01*
X-1438000Y-394451D02*
X-1386451Y-446000D01*
X-1138773Y-471434D02*
X-942708Y-667500D01*
X-513003D01*
X-1138773Y-471434D02*
Y88244D01*
X-1687501Y-375000D02*
X-1650000D01*
X-1625000Y-400000D01*
Y-440000D02*
Y-400000D01*
Y-440000D02*
X-1592500Y-472500D01*
X-976030Y-731970D02*
X-878030D01*
X-938725Y-845000D02*
X-241500D01*
X-1350000Y-358000D02*
X-976030Y-731970D01*
X-1438000Y-394451D02*
Y-297000D01*
X-878030Y-731970D02*
X-872500Y-737500D01*
X-1305000Y-275000D02*
X-1212500D01*
X-1310000Y-270000D02*
X-1305000Y-275000D01*
X-1330000Y-270000D02*
X-1310000D01*
X-1472500Y-100000D02*
X-1460000Y-112500D01*
X-1517500Y-100000D02*
X-1472500D01*
X-2167500Y-300000D02*
Y-225503D01*
X-1517500Y-50000D02*
X-1443004D01*
X-1422501Y-29497D02*
Y-5315D01*
X-1443004Y-50000D02*
X-1422501Y-29497D01*
X-2835000Y-130000D02*
X-2742500D01*
X-2712501Y-100000D01*
X-2593003Y600000D02*
X-2562500Y569497D01*
Y-19497D02*
Y569497D01*
X-2593003Y-50000D02*
X-2562500Y-19497D01*
X-2622500Y600000D02*
X-2593003D01*
X-2622500Y600000D02*
X-2622500Y600000D01*
X-2667500Y600000D02*
X-2622500D01*
X-2667500Y-50000D02*
X-2593003D01*
X-1340254Y-47519D02*
X-1335508Y-42773D01*
X-1345000Y-125000D02*
X-1340254Y-120254D01*
Y-47519D01*
X-1592500Y-472500D02*
X-1590000D01*
X-1212500Y-275000D02*
Y25000D01*
X-241500Y-845000D02*
X-62000Y-1024500D01*
Y-1120000D02*
Y-1024500D01*
X-952500Y-586998D02*
Y-464497D01*
Y-586998D02*
X-931997Y-607500D01*
X-284749D01*
X-1159500Y760000D02*
X-1079500Y680000D01*
X-925000D01*
X-1612500Y679497D02*
X-1553997Y738000D01*
X-1400500D01*
X-1612500Y470502D02*
Y679497D01*
X-1410067Y747567D02*
X-1400500Y738000D01*
X-1612500Y470502D02*
X-1591997Y450000D01*
X-1517500D01*
X-1345000Y650000D02*
X-1315000Y680000D01*
X-1517500Y650000D02*
X-1345000D01*
X-1315000Y680000D02*
X-1312500D01*
X-1280000Y712500D01*
X-513003Y-667500D02*
X-473003Y-707500D01*
X417500D01*
X-1088774Y-328224D02*
Y55431D01*
X-1180000Y129470D02*
X-1138773Y88244D01*
X-1088774Y-328224D02*
X-952500Y-464497D01*
X-1180000Y129470D02*
Y143000D01*
X-1082500Y61704D02*
Y147663D01*
X-1088774Y55431D02*
X-1082500Y61704D01*
X-1216451Y231000D02*
X-1135997D01*
X-1016997Y350000D01*
X-1319444Y398895D02*
X-1283119D01*
X-1203224Y319000D01*
X-1082500Y147663D02*
X-1074731Y155431D01*
X-1375000Y330000D02*
Y331997D01*
X-1517500Y400000D02*
X-1443003D01*
X-1375000Y331997D01*
X-1317839Y468000D02*
X-1305339Y455500D01*
X-1411997Y550000D02*
X-1329997Y468000D01*
X-1317839D01*
X-1432707Y500000D02*
X-1350708Y418000D01*
X-1338549D02*
X-1319444Y398895D01*
X-1350708Y418000D02*
X-1338549D01*
X-1305339Y455500D02*
X-1258549D01*
X-284749Y-607500D02*
X-257249Y-580000D01*
X417500D01*
X-1517500Y500000D02*
X-1432707D01*
X-1258549Y455500D02*
X-1228049Y425000D01*
X-925000D01*
X-822500Y527500D01*
X810000Y1009188D02*
Y1125000D01*
X-750000Y550000D02*
X-642577Y657423D01*
Y682423D01*
X-822500Y530000D02*
X-802500Y550000D01*
X-750000D01*
X-300000Y907500D02*
Y910000D01*
X-822500Y527500D02*
Y530000D01*
X-1517500Y550000D02*
X-1411997D01*
X-770000Y682500D02*
X-735000Y717500D01*
Y1090000D01*
X-770000Y680000D02*
Y682500D01*
X192000Y-1215500D02*
Y-1120000D01*
X-762500Y-537500D02*
X-717500Y-492500D01*
Y-390000D01*
X-872500Y-537500D02*
X-762500D01*
X-717500Y-390000D02*
X-685000Y-422500D01*
X-598641D02*
X-575000Y-446141D01*
Y-535000D02*
Y-446141D01*
X-685000Y-422500D02*
X-598641D01*
X-575000Y-535000D02*
X-572500Y-537500D01*
X-872500Y-737500D02*
X-572500D01*
X635000Y-775000D02*
X808000D01*
X822500Y-760500D01*
X572500Y-712500D02*
X635000Y-775000D01*
X572500Y-712500D02*
Y-710000D01*
X748000Y-580000D02*
X810500Y-642500D01*
X822500D01*
X572500Y-580000D02*
X748000D01*
X-1767500Y-445000D02*
X-1740000Y-472500D01*
X-1767500Y-445000D02*
Y-300000D01*
X-1452500Y1005000D02*
X-1450000D01*
X-1712500Y895000D02*
X-1607500Y1000000D01*
X-1717500Y850000D02*
Y895000D01*
X-1312500Y600000D02*
X-1280000Y567500D01*
Y565000D02*
Y567500D01*
X-1517500Y600000D02*
X-1312500D01*
X-2850000Y32500D02*
X-2767500Y-50000D01*
X-2667500D01*
X-2850000Y32500D02*
Y35000D01*
X-1755000Y1250000D02*
X-1725000Y1280000D01*
X-1760000Y1250000D02*
X-1755000D01*
X-1725000Y1280000D02*
X-1570000D01*
X-2060000Y1127500D02*
X-1967500Y1035000D01*
Y850000D02*
Y1035000D01*
X-2060000Y1127500D02*
Y1130000D01*
X-2047450Y1142550D02*
X-1897450D01*
X-2060000Y1130000D02*
X-2047450Y1142550D01*
X-2254749Y937249D02*
Y962751D01*
X-2227500Y990000D01*
X-2267500Y924497D02*
X-2254749Y937249D01*
X-2777500Y517500D02*
X-2775000D01*
X-2742500Y550000D02*
X-2667500D01*
X-2775000Y517500D02*
X-2742500Y550000D01*
X-2810000Y485000D02*
X-2777500Y517500D01*
X-2787500Y600000D02*
X-2667500D01*
X-2807500Y620000D02*
X-2787500Y600000D01*
X-2340000Y946997D02*
X-2317500Y924497D01*
X-2340000Y946997D02*
Y957500D01*
X-2372500Y990000D02*
X-2340000Y957500D01*
X-2317500Y850000D02*
Y924497D01*
X-2375000Y990000D02*
X-2372500D01*
D35*
X2065000Y1140000D02*
X2250000D01*
X2500000Y-1025000D02*
Y-900000D01*
X2250000Y-1130000D02*
Y-900000D01*
X2000000Y-1025000D02*
Y-900000D01*
X-2157500Y1200711D02*
X-2098211Y1260000D01*
X-2077500D02*
X-2060000Y1277500D01*
X-2157500Y1175000D02*
Y1200711D01*
X-2225000Y1110000D02*
X-2222500D01*
X-2157500Y1175000D01*
X-2060000Y1277500D02*
Y1280000D01*
X-2098211Y1260000D02*
X-2077500D01*
X-1899950Y1249950D02*
X-1897450D01*
X412500Y802500D02*
Y970000D01*
X282000Y672000D02*
X412500Y802500D01*
X-336588Y672000D02*
X282000D01*
X-371112Y706524D02*
X-336588Y672000D01*
X-376525Y706524D02*
X-371112D01*
X-2821250Y-411250D02*
X-2820000Y-410000D01*
X-2923750Y-411250D02*
X-2821250D01*
X-2925000Y-412500D02*
X-2923750Y-411250D01*
X543750Y1118750D02*
X648750D01*
X542500Y1120000D02*
X543750Y1118750D01*
X648750D02*
X650000Y1117500D01*
X810000Y825000D02*
X1500000D01*
X-1607500Y862500D02*
Y1000000D01*
X-2680000Y-447000D02*
Y-320000D01*
Y-464000D02*
Y-447000D01*
X-1012500Y-160000D02*
X-890000D01*
X-851913Y-311913D02*
X-850000Y-310000D01*
X-851913Y-374414D02*
Y-311913D01*
X-867500Y-390000D02*
X-851913Y-374414D01*
X-1012500Y-160000D02*
Y25000D01*
Y-275000D02*
Y-160000D01*
Y-285000D02*
X-925000Y-372500D01*
X-885000D01*
X-867500Y-390000D01*
X-1012500Y-285000D02*
Y-275000D01*
X-1452706Y1150000D02*
X-1432706Y1170000D01*
X-1430000D01*
X-1570000Y1130000D02*
Y1132500D01*
X-1552500Y1150000D01*
X-1452706D01*
X-570000Y-1113500D02*
X-536500Y-1080000D01*
X-470000D01*
X-570000Y-1120000D02*
Y-1113500D01*
X1099250Y-641750D02*
Y-500750D01*
X1100000Y-500000D01*
X1098500Y-642500D02*
X1099250Y-641750D01*
X650000Y-900000D02*
X652706D01*
X674206Y-878500D02*
X822500D01*
X652706Y-900000D02*
X674206Y-878500D01*
X1815000Y1140000D02*
X2065000D01*
X192000Y-1120000D02*
X1400000D01*
X1975000Y1050000D02*
X2065000Y1140000D01*
X1975000Y-545000D02*
Y1050000D01*
X1400000Y-1120000D02*
X1975000Y-545000D01*
X-2107500Y-502500D02*
X-2060000D01*
X-2152000Y-547000D02*
X-2107500Y-502500D01*
X-2543710Y-547000D02*
X-2152000D01*
X-2623710Y-467000D02*
X-2543710Y-547000D01*
X-2047500Y-490000D02*
Y-487500D01*
X-2060000Y-502500D02*
X-2047500Y-490000D01*
X-2680000Y-464000D02*
X-2677000Y-467000D01*
X-2623710D01*
X-2697711Y-583000D02*
X-2653290D01*
X-2802500Y-478211D02*
X-2697711Y-583000D01*
X-2585000Y-710000D02*
X-2582000Y-713000D01*
X-2653290Y-583000D02*
X-2588000Y-648289D01*
X-2820000Y-410000D02*
X-2802500Y-427500D01*
Y-478211D02*
Y-427500D01*
X-2588000Y-707000D02*
X-2585000Y-710000D01*
X-2588000Y-707000D02*
Y-648289D01*
X-2493000Y-707000D02*
X-2490000Y-710000D01*
X-1607500Y862500D02*
X-1572353Y827353D01*
X-1493311D01*
X-1455164Y865500D02*
X-1345500D01*
X-1493311Y827353D02*
X-1455164Y865500D01*
X-1345500D02*
X-1280000Y800000D01*
X1098500Y-878500D02*
X1110500D01*
X822500D02*
X1098500D01*
X-590000Y1265000D02*
X-519105Y1194105D01*
Y1109105D02*
X-455000Y1045000D01*
X-519105Y1109105D02*
Y1194105D01*
X-455000Y910000D02*
Y1045000D01*
X-1125000Y1265000D02*
X-590000D01*
X412500Y970000D02*
X542500D01*
X525000Y1255000D02*
X1670000D01*
X420000Y1120000D02*
Y1122500D01*
X522500Y1260000D02*
X540000Y1242500D01*
X1670000Y1255000D02*
X1675000Y1260000D01*
X520000D02*
X525000Y1255000D01*
X542500Y967500D02*
X560000Y950000D01*
X616666D01*
X729693Y836972D01*
X803027D01*
X810000Y830000D01*
X542500Y967500D02*
Y970000D01*
X1500000Y825000D02*
X1815000Y1140000D01*
X810000Y825000D02*
Y830000D01*
X542500Y1120000D02*
Y1158522D01*
X540000Y1161022D02*
Y1242500D01*
Y1161022D02*
X542500Y1158522D01*
X420000Y1120000D02*
X542500D01*
X-2635000Y990000D02*
X-2375000D01*
X-3000000Y400000D02*
Y625000D01*
X-2635000Y990000D01*
X-2850000Y-115000D02*
Y-112500D01*
X-2944853Y-95000D02*
X-2867500D01*
X-3000000Y-39853D02*
X-2944853Y-95000D01*
X-3000000Y-39853D02*
Y400000D01*
X-2867500Y-95000D02*
X-2850000Y-112500D01*
X-3000000Y400000D02*
X-2935000Y465000D01*
X-2827500D01*
X-1280000Y800000D02*
Y1125000D01*
Y715000D02*
Y800000D01*
X1098500Y-760500D02*
Y-642500D01*
Y-878500D02*
Y-760500D01*
X-1140000Y1265000D02*
X-1125000D01*
X-1280000Y1125000D02*
X-1140000Y1265000D01*
X1857500Y1230000D02*
X2160000D01*
X1827500Y1260000D02*
X1857500Y1230000D01*
X2160000D02*
X2250000Y1140000D01*
X1825000Y1260000D02*
X1827500D01*
X-2677000Y-795500D02*
X-2623750Y-848750D01*
X-2540000Y-816790D02*
X-2520000Y-836790D01*
Y-857500D02*
X-2502500Y-875000D01*
X-2540000Y-816790D02*
Y-816790D01*
X-2502500Y-875000D02*
X-2500000D01*
X-2520000Y-857500D02*
Y-836790D01*
X-2582000Y-774790D02*
Y-713000D01*
Y-774790D02*
X-2540000Y-816790D01*
X-2680000Y-710000D02*
X-2677000Y-707000D01*
Y-795500D02*
Y-713000D01*
X-2680000Y-710000D02*
X-2677000Y-713000D01*
X-2802500Y-280000D02*
X-2720000D01*
X-2820000Y-262500D02*
Y-260000D01*
Y-262500D02*
X-2802500Y-280000D01*
X-2720000D02*
X-2680000Y-320000D01*
X-2835000Y-245000D02*
X-2820000Y-260000D01*
X-2850000Y-115000D02*
X-2835000Y-130000D01*
Y-245000D02*
Y-130000D01*
X-1760050Y1142550D02*
X-1758800Y1141300D01*
X-1570000Y1130000D02*
X-1565000Y1125000D01*
X-1758800Y1141300D02*
X-1581300D01*
X-1570000Y1130000D01*
X-1450000Y1005000D02*
Y1089853D01*
X-1565000Y1125000D02*
X-1485147D01*
X-1450000Y1089853D01*
X-2055000Y1275000D02*
X-1925000D01*
X-2060000Y1280000D02*
X-2055000Y1275000D01*
X-1925000D02*
X-1899950Y1249950D01*
X-2227500Y990000D02*
X-2225000Y992500D01*
Y1110000D01*
X-2375000Y990000D02*
Y1110000D01*
D36*
X-1648860Y-625000D02*
X-1595000Y-678860D01*
X-1715000Y-560000D02*
Y-495000D01*
Y-560000D02*
X-1650000Y-625000D01*
X-1737500Y-472500D02*
X-1715000Y-495000D01*
X-1595000Y-812500D02*
Y-678860D01*
X-1650000Y-625000D02*
X-1648860D01*
X-1595000Y-877500D02*
Y-812500D01*
Y-877500D02*
X-1520000D01*
X-1844289Y-1130711D02*
Y-1054718D01*
X-2075992Y-1025000D02*
X-1963492Y-912500D01*
X-1915000Y-984008D02*
Y-912500D01*
X-1844289Y-1130711D02*
X-1747500Y-1227500D01*
X-1915000Y-984008D02*
X-1844289Y-1054718D01*
X-2493000Y-724000D02*
Y-707000D01*
X-1963492Y-912500D02*
X-1915000D01*
X-2325496Y-1025000D02*
X-2075992D01*
X-1915000Y-912500D02*
Y-812500D01*
X-2382925Y-967571D02*
Y-830935D01*
Y-967571D02*
X-2325496Y-1025000D01*
X-2440355Y-773505D02*
X-2382925Y-830935D01*
X-2575000Y-1025000D02*
X-2325496D01*
X-2493000Y-724000D02*
X-2443495Y-773505D01*
X-2440355D01*
X-1747500Y-1227500D02*
X-1468639D01*
X-1433639Y-1192500D01*
X-1196360D02*
X-1151360Y-1237500D01*
X-1433639Y-1192500D02*
X-1196360D01*
X-1740000Y-472500D02*
X-1737500D01*
X-2650000Y-875000D02*
X-2647500D01*
X-2625000Y-897500D01*
Y-975000D02*
Y-897500D01*
Y-975000D02*
X-2575000Y-1025000D01*
D37*
X-662500Y-1291012D02*
X-645512Y-1308000D01*
X-466175Y-1281137D02*
X-423325D01*
X-493038Y-1308000D02*
X-466175Y-1281137D01*
X-645512Y-1308000D02*
X-493038D01*
X-662500Y-1291012D02*
Y-1115200D01*
X-663500Y-1114200D02*
X-662500Y-1115200D01*
X-239038Y-1311500D02*
X-194038Y-1266500D01*
X-113000D01*
X-392962Y-1311500D02*
X-239038D01*
X-423325Y-1281137D02*
X-392962Y-1311500D01*
D38*
X206449Y1262500D02*
Y1324068D01*
X-977500Y530000D02*
Y532500D01*
X-1000000Y555000D02*
X-977500Y532500D01*
X-1042500Y555000D02*
X-1000000D01*
X-1222500Y655000D02*
X-1142500D01*
X-1280000Y712500D02*
X-1222500Y655000D01*
X-1280000Y712500D02*
Y715000D01*
X-1142500Y655000D02*
X-1042500Y555000D01*
X229880Y1347500D02*
X1741569D01*
X1775000Y1307500D02*
X1822500Y1260000D01*
X1775000Y1307500D02*
Y1314068D01*
X1741569Y1347500D02*
X1775000Y1314068D01*
X206449Y1324068D02*
X229880Y1347500D01*
X1822500Y1260000D02*
X1825000D01*
D39*
X-1917500Y850000D02*
X-1917000Y850500D01*
Y932999D01*
X-1829200Y1020800D01*
Y1185800D01*
X-1765000Y1250000D01*
X-1760000D01*
D40*
X-1975000Y-1072500D02*
D03*
X-1535000D02*
D03*
D41*
X-2130000Y990000D02*
D03*
X2900000Y-700000D02*
D03*
X2700000D02*
D03*
X2500000D02*
D03*
X2300000D02*
D03*
X2100000D02*
D03*
X1700000Y-500000D02*
D03*
X1800000Y-300000D02*
D03*
X1700000Y-100000D02*
D03*
X1800000Y100000D02*
D03*
X2800000Y-500000D02*
D03*
X2600000D02*
D03*
X2400000D02*
D03*
X2200000D02*
D03*
X2100000Y-300000D02*
D03*
X2300000D02*
D03*
X2500000D02*
D03*
X2700000D02*
D03*
X2800000Y-100000D02*
D03*
X2600000D02*
D03*
X2400000D02*
D03*
X2200000D02*
D03*
X2100000Y100000D02*
D03*
X2300000D02*
D03*
X2500000D02*
D03*
X2700000D02*
D03*
X2800000Y300000D02*
D03*
X2600000D02*
D03*
X2400000D02*
D03*
X2200000D02*
D03*
X1700000D02*
D03*
X1800000Y500000D02*
D03*
X2100000D02*
D03*
X2300000D02*
D03*
X2500000D02*
D03*
X2700000D02*
D03*
X2800000Y700000D02*
D03*
X2600000D02*
D03*
X2400000D02*
D03*
X2200000D02*
D03*
X1700000D02*
D03*
X1800000Y900000D02*
D03*
X2100000D02*
D03*
X2300000D02*
D03*
X2500000D02*
D03*
X2700000D02*
D03*
X1550000Y1050000D02*
D03*
X1450000Y1150000D02*
D03*
X1150000D02*
D03*
X950000Y1050000D02*
D03*
X1150000Y950000D02*
D03*
X1300000Y1050000D02*
D03*
X1450000Y950000D02*
D03*
X-2501250Y-875000D02*
D03*
X-1570000Y-590000D02*
D03*
X-1520000Y-760000D02*
D03*
X900000Y-300000D02*
D03*
X950000Y-150000D02*
D03*
X1000000Y150000D02*
D03*
X900000Y300000D02*
D03*
X975000Y575000D02*
D03*
X875000Y650000D02*
D03*
X750000Y575000D02*
D03*
X650000Y650000D02*
D03*
X550000Y575000D02*
D03*
X450000Y650000D02*
D03*
X350000Y575000D02*
D03*
X-2055000Y1275000D02*
D03*
X-1650000Y1140000D02*
D03*
X-1380000Y1000000D02*
D03*
X-1130000Y1050000D02*
D03*
X-2630000Y1110000D02*
D03*
X-2490000Y1210000D02*
D03*
X-2350000Y1300000D02*
D03*
X-470000Y-1200000D02*
D03*
X-900000Y1100000D02*
D03*
Y800000D02*
D03*
X-150000Y-800000D02*
D03*
X50000Y-900000D02*
D03*
X300000Y-800000D02*
D03*
X500000Y-900000D02*
D03*
X-600000Y450000D02*
D03*
X-750000Y300000D02*
D03*
X-900000Y150000D02*
D03*
X-2550000Y-1200000D02*
D03*
X-2800000Y-900000D02*
D03*
Y-600000D02*
D03*
X-2950000Y-650000D02*
D03*
X-3050000Y-400000D02*
D03*
X-2950000Y-250000D02*
D03*
X-3100000Y-150000D02*
D03*
Y0D02*
D03*
X350000Y-1250000D02*
D03*
X600000Y-1300000D02*
D03*
X850000Y-1250000D02*
D03*
X1100000Y-1300000D02*
D03*
X1300000Y-1250000D02*
D03*
X1500000Y-1300000D02*
D03*
X1700000Y-1250000D02*
D03*
X1950000Y-1300000D02*
D03*
X1250000Y-450000D02*
D03*
X1400000Y-300000D02*
D03*
X1100000D02*
D03*
X1250000Y-150000D02*
D03*
X1400000Y0D02*
D03*
X1100000D02*
D03*
X1250000Y150000D02*
D03*
X1400000Y300000D02*
D03*
X1100000D02*
D03*
X1250000Y450000D02*
D03*
X1400000Y600000D02*
D03*
X1100000D02*
D03*
X2000000Y-900000D02*
D03*
X2250000D02*
D03*
X2500000D02*
D03*
X-1899950Y1249950D02*
D03*
X-295000Y795000D02*
D03*
X-527500Y797500D02*
D03*
X-1005000Y915000D02*
D03*
X-2207500Y715000D02*
D03*
X-1520000Y-877500D02*
D03*
X-2925000Y-412500D02*
D03*
X650000Y1117500D02*
D03*
X-890000Y-160000D02*
D03*
X-850000Y-310000D02*
D03*
X-1190000Y520000D02*
D03*
X-1430000Y1170000D02*
D03*
X-470000Y-1080000D02*
D03*
X1100000Y-500000D02*
D03*
X650000Y-900000D02*
D03*
X-2795000Y690000D02*
D03*
X-2845000Y145000D02*
D03*
X55000Y1080000D02*
D03*
X125000Y1150000D02*
D03*
X-25000D02*
D03*
X125000Y1000000D02*
D03*
X-25000D02*
D03*
D42*
X-735000Y-1212500D02*
D03*
D43*
X-376525Y706524D02*
D03*
X-150000Y775000D02*
D03*
X-455000Y910000D02*
D03*
X-152500Y1295500D02*
D03*
X-1660000Y-67500D02*
D03*
X-1820000Y-12000D02*
D03*
X-1679500Y-309572D02*
D03*
X-1550335Y-189835D02*
D03*
X-1355549Y-228000D02*
D03*
X-1350000Y-358000D02*
D03*
X-1335508Y-42773D02*
D03*
X-1400500Y738000D02*
D03*
X-1159500Y760000D02*
D03*
X-1180000Y143000D02*
D03*
X-1203224Y319000D02*
D03*
X-1074731Y155431D02*
D03*
X-1375000Y330000D02*
D03*
X-400000Y1150000D02*
D03*
%TF.MD5,57039286f764b15c52972eb5f0c9598b*%
M02*
