%TF.GenerationSoftware,Altium Limited,Altium Designer,23.8.1 (32)*%
G04 Layer_Color=8421504*
%FSLAX45Y45*%
%MOMM*%
%TF.SameCoordinates,BDBBB65B-ECCD-4A33-B3A0-C369F96B0D16*%
%TF.FilePolarity,Positive*%
%TF.FileFunction,Paste,Top*%
%TF.Part,Single*%
G01*
G75*
%TA.AperFunction,ConnectorPad*%
%ADD10R,1.27000X3.18000*%
%TA.AperFunction,SMDPad,CuDef*%
%ADD11R,6.10000X2.40000*%
%ADD12R,2.00000X2.50000*%
%ADD13R,0.50000X2.50000*%
%ADD14R,0.30000X1.20000*%
%ADD15R,1.20000X0.30000*%
%ADD16R,0.80000X0.60000*%
%ADD17R,0.90000X0.70000*%
%ADD18R,1.00000X0.95000*%
%ADD19R,0.95000X1.00000*%
%ADD20R,0.35000X0.80000*%
%ADD21R,0.85000X0.35000*%
%ADD22R,2.60000X2.70000*%
%ADD23R,0.70000X0.90000*%
%ADD24R,0.66000X1.00000*%
%ADD25R,0.85000X0.90000*%
%ADD26R,0.94000X0.70000*%
%ADD27R,1.30000X1.00000*%
%ADD28R,0.53000X0.20000*%
%ADD29R,0.80000X0.80000*%
%TA.AperFunction,ConnectorPad*%
%ADD30R,0.95000X1.00000*%
%TA.AperFunction,SMDPad,CuDef*%
%ADD31R,0.67500X0.57500*%
D10*
X192000Y-1120000D02*
D03*
X-62000D02*
D03*
X-316000D02*
D03*
X-570000D02*
D03*
D11*
X2250000Y-1130000D02*
D03*
Y1140000D02*
D03*
D12*
X-1315000Y-812500D02*
D03*
Y-1362500D02*
D03*
X-2195000D02*
D03*
Y-812500D02*
D03*
D13*
X-1595000D02*
D03*
X-1675000D02*
D03*
X-1755000D02*
D03*
X-1835000D02*
D03*
X-1915000D02*
D03*
D14*
X-1717500Y850000D02*
D03*
X-1767500D02*
D03*
X-1817500D02*
D03*
X-1867500D02*
D03*
X-1917500D02*
D03*
X-1967500D02*
D03*
X-2017500D02*
D03*
X-2067500D02*
D03*
X-2117500D02*
D03*
X-2167500D02*
D03*
X-2217500D02*
D03*
X-2267500D02*
D03*
X-2317500D02*
D03*
X-2367500D02*
D03*
X-2417500D02*
D03*
X-2467500D02*
D03*
Y-300000D02*
D03*
X-2417500D02*
D03*
X-2367500D02*
D03*
X-2317500D02*
D03*
X-2267500D02*
D03*
X-2217500D02*
D03*
X-2167500D02*
D03*
X-2117500D02*
D03*
X-2067500D02*
D03*
X-2017500D02*
D03*
X-1967500D02*
D03*
X-1917500D02*
D03*
X-1867500D02*
D03*
X-1817500D02*
D03*
X-1767500D02*
D03*
X-1717500D02*
D03*
D15*
X-2667500Y650000D02*
D03*
Y600000D02*
D03*
Y550000D02*
D03*
Y500000D02*
D03*
Y450000D02*
D03*
Y400000D02*
D03*
Y350000D02*
D03*
Y300000D02*
D03*
Y250000D02*
D03*
Y200000D02*
D03*
Y150000D02*
D03*
Y100000D02*
D03*
Y50000D02*
D03*
Y-0D02*
D03*
Y-50000D02*
D03*
Y-100000D02*
D03*
X-1517500D02*
D03*
Y-50000D02*
D03*
Y-0D02*
D03*
Y50000D02*
D03*
Y100000D02*
D03*
Y150000D02*
D03*
Y200000D02*
D03*
Y250000D02*
D03*
Y300000D02*
D03*
Y350000D02*
D03*
Y400000D02*
D03*
Y450000D02*
D03*
Y500000D02*
D03*
Y550000D02*
D03*
Y600000D02*
D03*
Y650000D02*
D03*
D16*
X-1345000Y-125000D02*
D03*
Y-255000D02*
D03*
X810000Y1125000D02*
D03*
Y1255000D02*
D03*
D17*
X-872500Y-737500D02*
D03*
X-572500D02*
D03*
X-872500Y-537500D02*
D03*
X-572500D02*
D03*
D18*
X520000Y1260000D02*
D03*
X370000D02*
D03*
X-717500Y-390000D02*
D03*
X-867500D02*
D03*
X-2375000Y1110000D02*
D03*
X-2225000D02*
D03*
X1825000Y1260000D02*
D03*
X1675000D02*
D03*
X-1605000Y1000000D02*
D03*
X-1455000D02*
D03*
X-2375000Y990000D02*
D03*
X-2225000D02*
D03*
X-1590000Y-472500D02*
D03*
X-1740000D02*
D03*
X-2650000Y-875000D02*
D03*
X-2500000D02*
D03*
D19*
X412500Y1120000D02*
D03*
Y970000D02*
D03*
X542500Y1120000D02*
D03*
Y970000D02*
D03*
X-1280000Y565000D02*
D03*
Y715000D02*
D03*
X-2850000Y35000D02*
D03*
Y-115000D02*
D03*
X-2827500Y465000D02*
D03*
Y615000D02*
D03*
X-2820000Y-260000D02*
D03*
Y-410000D02*
D03*
D20*
X-70000Y880000D02*
D03*
X-20000D02*
D03*
X30000D02*
D03*
X80000D02*
D03*
X130000D02*
D03*
X180000D02*
D03*
X-70000Y1280000D02*
D03*
X-20000D02*
D03*
X30000D02*
D03*
X80000D02*
D03*
X130000D02*
D03*
X180000D02*
D03*
D21*
X252500Y955000D02*
D03*
Y1005000D02*
D03*
Y1055000D02*
D03*
Y1105000D02*
D03*
Y1155000D02*
D03*
Y1205000D02*
D03*
X-142500Y955000D02*
D03*
Y1005000D02*
D03*
Y1055000D02*
D03*
Y1105000D02*
D03*
Y1155000D02*
D03*
Y1205000D02*
D03*
D22*
X55000Y1080000D02*
D03*
D23*
X-1012500Y-275000D02*
D03*
Y25000D02*
D03*
X-1212500Y-275000D02*
D03*
Y25000D02*
D03*
D24*
X-2680000Y-710000D02*
D03*
X-2585000D02*
D03*
X-2490000D02*
D03*
Y-447000D02*
D03*
X-2680000D02*
D03*
D25*
X-1892500Y-487500D02*
D03*
X-2047500D02*
D03*
X-455000Y910000D02*
D03*
X-300000D02*
D03*
X-977500Y530000D02*
D03*
X-822500D02*
D03*
X-770000Y680000D02*
D03*
X-925000D02*
D03*
X417500Y-710000D02*
D03*
X572500D02*
D03*
X417500Y-580000D02*
D03*
X572500D02*
D03*
D26*
X1098500Y-878500D02*
D03*
X822500D02*
D03*
X1098500Y-760500D02*
D03*
X822500D02*
D03*
Y-642500D02*
D03*
X1098500D02*
D03*
D27*
X-1125000Y1265000D02*
D03*
Y915000D02*
D03*
X-735000Y1090000D02*
D03*
D28*
X-815800Y-1262500D02*
D03*
Y-1212500D02*
D03*
Y-1162500D02*
D03*
Y-1112500D02*
D03*
X-909200Y-1137500D02*
D03*
Y-1237500D02*
D03*
Y-1187500D02*
D03*
D29*
X810000Y990000D02*
D03*
Y830000D02*
D03*
D30*
X-2060000Y1130000D02*
D03*
Y1280000D02*
D03*
X-300000Y1260000D02*
D03*
Y1110000D02*
D03*
X-1570000Y1280000D02*
D03*
Y1130000D02*
D03*
D31*
X-1760050Y1142550D02*
D03*
X-1897450D02*
D03*
Y1249950D02*
D03*
X-1760000Y1250000D02*
D03*
%TF.MD5,816ec79377756f224ebf5d38fd1b5708*%
M02*
