%TF.GenerationSoftware,Altium Limited,Altium Designer,23.8.1 (32)*%
G04 Layer_Color=8388736*
%FSLAX45Y45*%
%MOMM*%
%TF.SameCoordinates,BDBBB65B-ECCD-4A33-B3A0-C369F96B0D16*%
%TF.FilePolarity,Negative*%
%TF.FileFunction,Soldermask,Top*%
%TF.Part,Single*%
G01*
G75*
%TA.AperFunction,ConnectorPad*%
%ADD10R,1.27000X3.18000*%
%TA.AperFunction,SMDPad,CuDef*%
%ADD14R,0.30000X1.20000*%
%ADD15R,1.20000X0.30000*%
%ADD24R,0.66000X1.00000*%
%ADD51R,6.30320X2.60320*%
%ADD52R,2.20320X2.70320*%
%ADD53R,0.70320X2.70320*%
%ADD54R,1.00320X0.80320*%
%ADD55R,1.10320X0.90320*%
%ADD56R,1.20320X1.15320*%
%ADD57R,1.15320X1.20320*%
%ADD58R,0.55320X1.00320*%
%ADD59R,1.05320X0.55320*%
%ADD60R,2.80320X2.90320*%
%ADD61R,0.90320X1.10320*%
%ADD62R,1.05320X1.10320*%
%ADD63R,1.14320X0.90320*%
%ADD64R,1.50320X1.20320*%
%ADD65R,0.73320X0.40320*%
%ADD66R,1.00320X1.00320*%
%TA.AperFunction,ConnectorPad*%
%ADD67R,1.15320X1.20320*%
%TA.AperFunction,SMDPad,CuDef*%
%ADD68R,0.87820X0.77820*%
%TA.AperFunction,ComponentPad*%
%ADD69C,1.40320*%
%TA.AperFunction,ViaPad*%
%ADD70C,0.90320*%
%ADD71C,0.80320*%
%ADD72C,1.00320*%
D10*
X192000Y-1120000D02*
D03*
X-62000D02*
D03*
X-316000D02*
D03*
X-570000D02*
D03*
D14*
X-1717500Y850000D02*
D03*
X-1767500D02*
D03*
X-1817500D02*
D03*
X-1867500D02*
D03*
X-1917500D02*
D03*
X-1967500D02*
D03*
X-2017500D02*
D03*
X-2067500D02*
D03*
X-2117500D02*
D03*
X-2167500D02*
D03*
X-2217500D02*
D03*
X-2267500D02*
D03*
X-2317500D02*
D03*
X-2367500D02*
D03*
X-2417500D02*
D03*
X-2467500D02*
D03*
Y-300000D02*
D03*
X-2417500D02*
D03*
X-2367500D02*
D03*
X-2317500D02*
D03*
X-2267500D02*
D03*
X-2217500D02*
D03*
X-2167500D02*
D03*
X-2117500D02*
D03*
X-2067500D02*
D03*
X-2017500D02*
D03*
X-1967500D02*
D03*
X-1917500D02*
D03*
X-1867500D02*
D03*
X-1817500D02*
D03*
X-1767500D02*
D03*
X-1717500D02*
D03*
D15*
X-2667500Y650000D02*
D03*
Y600000D02*
D03*
Y550000D02*
D03*
Y500000D02*
D03*
Y450000D02*
D03*
Y400000D02*
D03*
Y350000D02*
D03*
Y300000D02*
D03*
Y250000D02*
D03*
Y200000D02*
D03*
Y150000D02*
D03*
Y100000D02*
D03*
Y50000D02*
D03*
Y-0D02*
D03*
Y-50000D02*
D03*
Y-100000D02*
D03*
X-1517500D02*
D03*
Y-50000D02*
D03*
Y-0D02*
D03*
Y50000D02*
D03*
Y100000D02*
D03*
Y150000D02*
D03*
Y200000D02*
D03*
Y250000D02*
D03*
Y300000D02*
D03*
Y350000D02*
D03*
Y400000D02*
D03*
Y450000D02*
D03*
Y500000D02*
D03*
Y550000D02*
D03*
Y600000D02*
D03*
Y650000D02*
D03*
D24*
X-2680000Y-710000D02*
D03*
X-2585000D02*
D03*
X-2490000D02*
D03*
Y-447000D02*
D03*
X-2680000D02*
D03*
D51*
X2250000Y-1130000D02*
D03*
Y1140000D02*
D03*
D52*
X-1315000Y-812500D02*
D03*
Y-1362500D02*
D03*
X-2195000D02*
D03*
Y-812500D02*
D03*
D53*
X-1595000D02*
D03*
X-1675000D02*
D03*
X-1755000D02*
D03*
X-1835000D02*
D03*
X-1915000D02*
D03*
D54*
X-1345000Y-125000D02*
D03*
Y-255000D02*
D03*
X810000Y1125000D02*
D03*
Y1255000D02*
D03*
D55*
X-872500Y-737500D02*
D03*
X-572500D02*
D03*
X-872500Y-537500D02*
D03*
X-572500D02*
D03*
D56*
X520000Y1260000D02*
D03*
X370000D02*
D03*
X-717500Y-390000D02*
D03*
X-867500D02*
D03*
X-2375000Y1110000D02*
D03*
X-2225000D02*
D03*
X1825000Y1260000D02*
D03*
X1675000D02*
D03*
X-1605000Y1000000D02*
D03*
X-1455000D02*
D03*
X-2375000Y990000D02*
D03*
X-2225000D02*
D03*
X-1590000Y-472500D02*
D03*
X-1740000D02*
D03*
X-2650000Y-875000D02*
D03*
X-2500000D02*
D03*
D57*
X412500Y1120000D02*
D03*
Y970000D02*
D03*
X542500Y1120000D02*
D03*
Y970000D02*
D03*
X-1280000Y565000D02*
D03*
Y715000D02*
D03*
X-2850000Y35000D02*
D03*
Y-115000D02*
D03*
X-2827500Y465000D02*
D03*
Y615000D02*
D03*
X-2820000Y-260000D02*
D03*
Y-410000D02*
D03*
D58*
X-70000Y880000D02*
D03*
X-20000D02*
D03*
X30000D02*
D03*
X80000D02*
D03*
X130000D02*
D03*
X180000D02*
D03*
X-70000Y1280000D02*
D03*
X-20000D02*
D03*
X30000D02*
D03*
X80000D02*
D03*
X130000D02*
D03*
X180000D02*
D03*
D59*
X252500Y955000D02*
D03*
Y1005000D02*
D03*
Y1055000D02*
D03*
Y1105000D02*
D03*
Y1155000D02*
D03*
Y1205000D02*
D03*
X-142500Y955000D02*
D03*
Y1005000D02*
D03*
Y1055000D02*
D03*
Y1105000D02*
D03*
Y1155000D02*
D03*
Y1205000D02*
D03*
D60*
X55000Y1080000D02*
D03*
D61*
X-1012500Y-275000D02*
D03*
Y25000D02*
D03*
X-1212500Y-275000D02*
D03*
Y25000D02*
D03*
D62*
X-1892500Y-487500D02*
D03*
X-2047500D02*
D03*
X-455000Y910000D02*
D03*
X-300000D02*
D03*
X-977500Y530000D02*
D03*
X-822500D02*
D03*
X-770000Y680000D02*
D03*
X-925000D02*
D03*
X417500Y-710000D02*
D03*
X572500D02*
D03*
X417500Y-580000D02*
D03*
X572500D02*
D03*
D63*
X1098500Y-878500D02*
D03*
X822500D02*
D03*
X1098500Y-760500D02*
D03*
X822500D02*
D03*
Y-642500D02*
D03*
X1098500D02*
D03*
D64*
X-1125000Y1265000D02*
D03*
Y915000D02*
D03*
X-735000Y1090000D02*
D03*
D65*
X-815800Y-1262500D02*
D03*
Y-1212500D02*
D03*
Y-1162500D02*
D03*
Y-1112500D02*
D03*
X-909200Y-1137500D02*
D03*
Y-1237500D02*
D03*
Y-1187500D02*
D03*
D66*
X810000Y990000D02*
D03*
Y830000D02*
D03*
D67*
X-2060000Y1130000D02*
D03*
Y1280000D02*
D03*
X-300000Y1260000D02*
D03*
Y1110000D02*
D03*
X-1570000Y1280000D02*
D03*
Y1130000D02*
D03*
D68*
X-1760050Y1142550D02*
D03*
X-1897450D02*
D03*
Y1249950D02*
D03*
X-1760000Y1250000D02*
D03*
D69*
X-1975000Y-1072500D02*
D03*
X-1535000D02*
D03*
D70*
X-2130000Y990000D02*
D03*
X2900000Y-700000D02*
D03*
X2700000D02*
D03*
X2500000D02*
D03*
X2300000D02*
D03*
X2100000D02*
D03*
X1700000Y-500000D02*
D03*
X1800000Y-300000D02*
D03*
X1700000Y-100000D02*
D03*
X1800000Y100000D02*
D03*
X2800000Y-500000D02*
D03*
X2600000D02*
D03*
X2400000D02*
D03*
X2200000D02*
D03*
X2100000Y-300000D02*
D03*
X2300000D02*
D03*
X2500000D02*
D03*
X2700000D02*
D03*
X2800000Y-100000D02*
D03*
X2600000D02*
D03*
X2400000D02*
D03*
X2200000D02*
D03*
X2100000Y100000D02*
D03*
X2300000D02*
D03*
X2500000D02*
D03*
X2700000D02*
D03*
X2800000Y300000D02*
D03*
X2600000D02*
D03*
X2400000D02*
D03*
X2200000D02*
D03*
X1700000D02*
D03*
X1800000Y500000D02*
D03*
X2100000D02*
D03*
X2300000D02*
D03*
X2500000D02*
D03*
X2700000D02*
D03*
X2800000Y700000D02*
D03*
X2600000D02*
D03*
X2400000D02*
D03*
X2200000D02*
D03*
X1700000D02*
D03*
X1800000Y900000D02*
D03*
X2100000D02*
D03*
X2300000D02*
D03*
X2500000D02*
D03*
X2700000D02*
D03*
X1550000Y1050000D02*
D03*
X1450000Y1150000D02*
D03*
X1150000D02*
D03*
X950000Y1050000D02*
D03*
X1150000Y950000D02*
D03*
X1300000Y1050000D02*
D03*
X1450000Y950000D02*
D03*
X-2501250Y-875000D02*
D03*
X-1570000Y-590000D02*
D03*
X-1520000Y-760000D02*
D03*
X900000Y-300000D02*
D03*
X950000Y-150000D02*
D03*
X1000000Y150000D02*
D03*
X900000Y300000D02*
D03*
X975000Y575000D02*
D03*
X875000Y650000D02*
D03*
X750000Y575000D02*
D03*
X650000Y650000D02*
D03*
X550000Y575000D02*
D03*
X450000Y650000D02*
D03*
X350000Y575000D02*
D03*
X-2055000Y1275000D02*
D03*
X-1650000Y1140000D02*
D03*
X-1380000Y1000000D02*
D03*
X-1130000Y1050000D02*
D03*
X-2630000Y1110000D02*
D03*
X-2490000Y1210000D02*
D03*
X-2350000Y1300000D02*
D03*
X-470000Y-1200000D02*
D03*
X-900000Y1100000D02*
D03*
Y800000D02*
D03*
X-150000Y-800000D02*
D03*
X50000Y-900000D02*
D03*
X300000Y-800000D02*
D03*
X500000Y-900000D02*
D03*
X-600000Y450000D02*
D03*
X-750000Y300000D02*
D03*
X-900000Y150000D02*
D03*
X-2550000Y-1200000D02*
D03*
X-2800000Y-900000D02*
D03*
Y-600000D02*
D03*
X-2950000Y-650000D02*
D03*
X-3050000Y-400000D02*
D03*
X-2950000Y-250000D02*
D03*
X-3100000Y-150000D02*
D03*
Y0D02*
D03*
X350000Y-1250000D02*
D03*
X600000Y-1300000D02*
D03*
X850000Y-1250000D02*
D03*
X1100000Y-1300000D02*
D03*
X1300000Y-1250000D02*
D03*
X1500000Y-1300000D02*
D03*
X1700000Y-1250000D02*
D03*
X1950000Y-1300000D02*
D03*
X1250000Y-450000D02*
D03*
X1400000Y-300000D02*
D03*
X1100000D02*
D03*
X1250000Y-150000D02*
D03*
X1400000Y0D02*
D03*
X1100000D02*
D03*
X1250000Y150000D02*
D03*
X1400000Y300000D02*
D03*
X1100000D02*
D03*
X1250000Y450000D02*
D03*
X1400000Y600000D02*
D03*
X1100000D02*
D03*
X2000000Y-900000D02*
D03*
X2250000D02*
D03*
X2500000D02*
D03*
X-1899950Y1249950D02*
D03*
X-295000Y795000D02*
D03*
X-527500Y797500D02*
D03*
X-1005000Y915000D02*
D03*
X-2207500Y715000D02*
D03*
X-1520000Y-877500D02*
D03*
X-2925000Y-412500D02*
D03*
X650000Y1117500D02*
D03*
X-890000Y-160000D02*
D03*
X-850000Y-310000D02*
D03*
X-1190000Y520000D02*
D03*
X-1430000Y1170000D02*
D03*
X-470000Y-1080000D02*
D03*
X1100000Y-500000D02*
D03*
X650000Y-900000D02*
D03*
X-2795000Y690000D02*
D03*
X-2845000Y145000D02*
D03*
X55000Y1080000D02*
D03*
X125000Y1150000D02*
D03*
X-25000D02*
D03*
X125000Y1000000D02*
D03*
X-25000D02*
D03*
D71*
X-735000Y-1212500D02*
D03*
D72*
X-376525Y706524D02*
D03*
X-150000Y775000D02*
D03*
X-455000Y910000D02*
D03*
X-152500Y1295500D02*
D03*
X-1660000Y-67500D02*
D03*
X-1820000Y-12000D02*
D03*
X-1679500Y-309572D02*
D03*
X-1550335Y-189835D02*
D03*
X-1355549Y-228000D02*
D03*
X-1350000Y-358000D02*
D03*
X-1335508Y-42773D02*
D03*
X-1400500Y738000D02*
D03*
X-1159500Y760000D02*
D03*
X-1180000Y143000D02*
D03*
X-1203224Y319000D02*
D03*
X-1074731Y155431D02*
D03*
X-1375000Y330000D02*
D03*
X-400000Y1150000D02*
D03*
%TF.MD5,04ec7d86df026d5152c11ddad97ff3e5*%
M02*
