%TF.GenerationSoftware,Altium Limited,Altium Designer,23.8.1 (32)*%
G04 Layer_Color=0*
%FSLAX45Y45*%
%MOMM*%
%TF.SameCoordinates,BDBBB65B-ECCD-4A33-B3A0-C369F96B0D16*%
%TF.FilePolarity,Positive*%
%TF.FileFunction,Plated,1,2,PTH,Drill*%
%TF.Part,Single*%
G01*
G75*
%TA.AperFunction,ComponentDrill*%
%ADD74C,0.90000*%
%TA.AperFunction,ViaDrill,NotFilled*%
%ADD75C,0.30000*%
%ADD76C,0.40000*%
D74*
X-1975000Y-1072500D02*
D03*
X-1535000D02*
D03*
D75*
X-2130000Y990000D02*
D03*
X-735000Y-1212500D02*
D03*
X2900000Y-700000D02*
D03*
X2700000D02*
D03*
X2500000D02*
D03*
X2300000D02*
D03*
X2100000D02*
D03*
X1700000Y-500000D02*
D03*
X1800000Y-300000D02*
D03*
X1700000Y-100000D02*
D03*
X1800000Y100000D02*
D03*
X2800000Y-500000D02*
D03*
X2600000D02*
D03*
X2400000D02*
D03*
X2200000D02*
D03*
X2100000Y-300000D02*
D03*
X2300000D02*
D03*
X2500000D02*
D03*
X2700000D02*
D03*
X2800000Y-100000D02*
D03*
X2600000D02*
D03*
X2400000D02*
D03*
X2200000D02*
D03*
X2100000Y100000D02*
D03*
X2300000D02*
D03*
X2500000D02*
D03*
X2700000D02*
D03*
X2800000Y300000D02*
D03*
X2600000D02*
D03*
X2400000D02*
D03*
X2200000D02*
D03*
X1700000D02*
D03*
X1800000Y500000D02*
D03*
X2100000D02*
D03*
X2300000D02*
D03*
X2500000D02*
D03*
X2700000D02*
D03*
X2800000Y700000D02*
D03*
X2600000D02*
D03*
X2400000D02*
D03*
X2200000D02*
D03*
X1700000D02*
D03*
X1800000Y900000D02*
D03*
X2100000D02*
D03*
X2300000D02*
D03*
X2500000D02*
D03*
X2700000D02*
D03*
X1550000Y1050000D02*
D03*
X1450000Y1150000D02*
D03*
X1150000D02*
D03*
X950000Y1050000D02*
D03*
X1150000Y950000D02*
D03*
X1300000Y1050000D02*
D03*
X1450000Y950000D02*
D03*
X-2501250Y-875000D02*
D03*
X-1570000Y-590000D02*
D03*
X-1520000Y-760000D02*
D03*
X900000Y-300000D02*
D03*
X950000Y-150000D02*
D03*
X1000000Y150000D02*
D03*
X900000Y300000D02*
D03*
X975000Y575000D02*
D03*
X875000Y650000D02*
D03*
X750000Y575000D02*
D03*
X650000Y650000D02*
D03*
X550000Y575000D02*
D03*
X450000Y650000D02*
D03*
X350000Y575000D02*
D03*
X-2055000Y1275000D02*
D03*
X-1650000Y1140000D02*
D03*
X-1380000Y1000000D02*
D03*
X-1130000Y1050000D02*
D03*
X-2630000Y1110000D02*
D03*
X-2490000Y1210000D02*
D03*
X-2350000Y1300000D02*
D03*
X-470000Y-1200000D02*
D03*
X-900000Y1100000D02*
D03*
Y800000D02*
D03*
X-150000Y-800000D02*
D03*
X50000Y-900000D02*
D03*
X300000Y-800000D02*
D03*
X500000Y-900000D02*
D03*
X-600000Y450000D02*
D03*
X-750000Y300000D02*
D03*
X-900000Y150000D02*
D03*
X-2550000Y-1200000D02*
D03*
X-2800000Y-900000D02*
D03*
Y-600000D02*
D03*
X-2950000Y-650000D02*
D03*
X-3050000Y-400000D02*
D03*
X-2950000Y-250000D02*
D03*
X-3100000Y-150000D02*
D03*
Y0D02*
D03*
X350000Y-1250000D02*
D03*
X600000Y-1300000D02*
D03*
X850000Y-1250000D02*
D03*
X1100000Y-1300000D02*
D03*
X1300000Y-1250000D02*
D03*
X1500000Y-1300000D02*
D03*
X1700000Y-1250000D02*
D03*
X1950000Y-1300000D02*
D03*
X1250000Y-450000D02*
D03*
X1400000Y-300000D02*
D03*
X1100000D02*
D03*
X1250000Y-150000D02*
D03*
X1400000Y0D02*
D03*
X1100000D02*
D03*
X1250000Y150000D02*
D03*
X1400000Y300000D02*
D03*
X1100000D02*
D03*
X1250000Y450000D02*
D03*
X1400000Y600000D02*
D03*
X1100000D02*
D03*
X2000000Y-900000D02*
D03*
X2250000D02*
D03*
X2500000D02*
D03*
X-1899950Y1249950D02*
D03*
X-295000Y795000D02*
D03*
X-527500Y797500D02*
D03*
X-1005000Y915000D02*
D03*
X-2207500Y715000D02*
D03*
X-1520000Y-877500D02*
D03*
X-2925000Y-412500D02*
D03*
X650000Y1117500D02*
D03*
X-890000Y-160000D02*
D03*
X-850000Y-310000D02*
D03*
X-1190000Y520000D02*
D03*
X-1430000Y1170000D02*
D03*
X-470000Y-1080000D02*
D03*
X1100000Y-500000D02*
D03*
X650000Y-900000D02*
D03*
X-2795000Y690000D02*
D03*
X-2845000Y145000D02*
D03*
X55000Y1080000D02*
D03*
X125000Y1150000D02*
D03*
X-25000D02*
D03*
X125000Y1000000D02*
D03*
X-25000D02*
D03*
D76*
X-376525Y706524D02*
D03*
X-150000Y775000D02*
D03*
X-455000Y910000D02*
D03*
X-152500Y1295500D02*
D03*
X-1660000Y-67500D02*
D03*
X-1820000Y-12000D02*
D03*
X-1679500Y-309572D02*
D03*
X-1550335Y-189835D02*
D03*
X-1355549Y-228000D02*
D03*
X-1350000Y-358000D02*
D03*
X-1335508Y-42773D02*
D03*
X-1400500Y738000D02*
D03*
X-1159500Y760000D02*
D03*
X-1180000Y143000D02*
D03*
X-1203224Y319000D02*
D03*
X-1074731Y155431D02*
D03*
X-1375000Y330000D02*
D03*
X-400000Y1150000D02*
D03*
%TF.MD5,44dc5e2755027d4a851812d98743e2c6*%
M02*
