%TF.GenerationSoftware,Altium Limited,Altium Designer,23.8.1 (32)*%
G04 Layer_Color=65535*
%FSLAX45Y45*%
%MOMM*%
%TF.SameCoordinates,9B8521B9-100F-40E6-B2DB-B025D5793E82*%
%TF.FilePolarity,Positive*%
%TF.FileFunction,Legend,Top*%
%TF.Part,Single*%
G01*
G75*
%TA.AperFunction,NonConductor*%
%ADD44C,0.25000*%
%ADD45C,0.25400*%
%ADD46C,0.12500*%
%ADD47C,0.20000*%
%ADD48C,0.12700*%
%ADD49C,0.15300*%
%ADD50R,0.80000X0.15000*%
G36*
X1257307Y830694D02*
X1264150D01*
Y829325D01*
X1269624D01*
Y827957D01*
X1273729D01*
Y826588D01*
X1277835D01*
Y825220D01*
X1280572D01*
Y823852D01*
X1283309D01*
Y822483D01*
X1286046D01*
Y821114D01*
X1288783D01*
Y819746D01*
X1290152D01*
Y818377D01*
X1292889D01*
Y817009D01*
X1294257D01*
Y815640D01*
X1295626D01*
Y814272D01*
X1296994D01*
Y812903D01*
X1299731D01*
Y811535D01*
X1301100D01*
Y808798D01*
X1302468D01*
Y807429D01*
X1303837D01*
Y806061D01*
X1305205D01*
Y804692D01*
X1306574D01*
Y803324D01*
X1307943D01*
Y800587D01*
X1309311D01*
Y799218D01*
X1310680D01*
Y796481D01*
X1312048D01*
Y795112D01*
X1313416D01*
Y791007D01*
X1314785D01*
Y788270D01*
X1316154D01*
Y785533D01*
X1317522D01*
Y781427D01*
X1318891D01*
Y777322D01*
X1320259D01*
Y773216D01*
X1321628D01*
Y765005D01*
X1322996D01*
Y749951D01*
X1324365D01*
Y686999D01*
X1429741D01*
Y655523D01*
X1161511D01*
Y758162D01*
X1162879D01*
Y767742D01*
X1164247D01*
Y774585D01*
X1165616D01*
Y778690D01*
X1166984D01*
Y784164D01*
X1168353D01*
Y786901D01*
X1169722D01*
Y791007D01*
X1171090D01*
Y793744D01*
X1172459D01*
Y795112D01*
X1173827D01*
Y797850D01*
X1175196D01*
Y799218D01*
X1176564D01*
Y801955D01*
X1177933D01*
Y803324D01*
X1179301D01*
Y804692D01*
X1180670D01*
Y807429D01*
X1182038D01*
Y808798D01*
X1183407D01*
Y810166D01*
X1184775D01*
Y811535D01*
X1186144D01*
Y812903D01*
X1187512D01*
Y814272D01*
X1188881D01*
Y815640D01*
X1191618D01*
Y817009D01*
X1192986D01*
Y818377D01*
X1194355D01*
Y819746D01*
X1197092D01*
Y821114D01*
X1199829D01*
Y822483D01*
X1202566D01*
Y823852D01*
X1205303D01*
Y825220D01*
X1208040D01*
Y826588D01*
X1210777D01*
Y827957D01*
X1216251D01*
Y829325D01*
X1220357D01*
Y830694D01*
X1228568D01*
Y832063D01*
X1257307D01*
Y830694D01*
D02*
G37*
G36*
X1429741Y578886D02*
X1427004D01*
Y577517D01*
X1422899D01*
Y576149D01*
X1417424D01*
Y574780D01*
X1413319D01*
Y573412D01*
X1409213D01*
Y572043D01*
X1403739D01*
Y570674D01*
X1399633D01*
Y569306D01*
X1394160D01*
Y567937D01*
X1390054D01*
Y566569D01*
X1385948D01*
Y565201D01*
X1380474D01*
Y563832D01*
X1376369D01*
Y562463D01*
X1370895D01*
Y561095D01*
X1366789D01*
Y559726D01*
X1362683D01*
Y463930D01*
X1366789D01*
Y462561D01*
X1370895D01*
Y461193D01*
X1376369D01*
Y459824D01*
X1380474D01*
Y458456D01*
X1385948D01*
Y457087D01*
X1390054D01*
Y455718D01*
X1394160D01*
Y454350D01*
X1399633D01*
Y452982D01*
X1403739D01*
Y451613D01*
X1409213D01*
Y450244D01*
X1413319D01*
Y448876D01*
X1417424D01*
Y447507D01*
X1422899D01*
Y446139D01*
X1427004D01*
Y444770D01*
X1429741D01*
Y409189D01*
X1428373D01*
Y410557D01*
X1424267D01*
Y411926D01*
X1420161D01*
Y413294D01*
X1416056D01*
Y414663D01*
X1410582D01*
Y416031D01*
X1406476D01*
Y417400D01*
X1402371D01*
Y418768D01*
X1398265D01*
Y420137D01*
X1394160D01*
Y421505D01*
X1388685D01*
Y422874D01*
X1384580D01*
Y424242D01*
X1380474D01*
Y425611D01*
X1376369D01*
Y426980D01*
X1372263D01*
Y428348D01*
X1366789D01*
Y429716D01*
X1362683D01*
Y431085D01*
X1358578D01*
Y432454D01*
X1354472D01*
Y433822D01*
X1350367D01*
Y435191D01*
X1344893D01*
Y436559D01*
X1340787D01*
Y437928D01*
X1336682D01*
Y439296D01*
X1332576D01*
Y440665D01*
X1328470D01*
Y442033D01*
X1322996D01*
Y443402D01*
X1318891D01*
Y444770D01*
X1314785D01*
Y446139D01*
X1310680D01*
Y447507D01*
X1306574D01*
Y448876D01*
X1301100D01*
Y450244D01*
X1296994D01*
Y451613D01*
X1292889D01*
Y452982D01*
X1288783D01*
Y454350D01*
X1284678D01*
Y455718D01*
X1279203D01*
Y457087D01*
X1275098D01*
Y458456D01*
X1270992D01*
Y459824D01*
X1266887D01*
Y461193D01*
X1262781D01*
Y462561D01*
X1257307D01*
Y463930D01*
X1253201D01*
Y465298D01*
X1249096D01*
Y466667D01*
X1244990D01*
Y468035D01*
X1240885D01*
Y469404D01*
X1236779D01*
Y470772D01*
X1231305D01*
Y472141D01*
X1227199D01*
Y473509D01*
X1223094D01*
Y474878D01*
X1218988D01*
Y476246D01*
X1214883D01*
Y477615D01*
X1209409D01*
Y478983D01*
X1205303D01*
Y480352D01*
X1201197D01*
Y481720D01*
X1197092D01*
Y483089D01*
X1192986D01*
Y484458D01*
X1187512D01*
Y485826D01*
X1183407D01*
Y487195D01*
X1179301D01*
Y488563D01*
X1175196D01*
Y489932D01*
X1171090D01*
Y491300D01*
X1165616D01*
Y492669D01*
X1161511D01*
Y530987D01*
X1165616D01*
Y532356D01*
X1169722D01*
Y533724D01*
X1173827D01*
Y535093D01*
X1177933D01*
Y536461D01*
X1182038D01*
Y537830D01*
X1187512D01*
Y539199D01*
X1191618D01*
Y540567D01*
X1195724D01*
Y541935D01*
X1199829D01*
Y543304D01*
X1203935D01*
Y544673D01*
X1209409D01*
Y546041D01*
X1213514D01*
Y547410D01*
X1217620D01*
Y548778D01*
X1221726D01*
Y550147D01*
X1225831D01*
Y551515D01*
X1231305D01*
Y552884D01*
X1235411D01*
Y554252D01*
X1239516D01*
Y555621D01*
X1243622D01*
Y556989D01*
X1249096D01*
Y558358D01*
X1253201D01*
Y559726D01*
X1257307D01*
Y561095D01*
X1261413D01*
Y562463D01*
X1265518D01*
Y563832D01*
X1270992D01*
Y565201D01*
X1275098D01*
Y566569D01*
X1279203D01*
Y567937D01*
X1283309D01*
Y569306D01*
X1287414D01*
Y570674D01*
X1292889D01*
Y572043D01*
X1296994D01*
Y573412D01*
X1301100D01*
Y574780D01*
X1305205D01*
Y576149D01*
X1309311D01*
Y577517D01*
X1314785D01*
Y578886D01*
X1318891D01*
Y580254D01*
X1322996D01*
Y581623D01*
X1327102D01*
Y582991D01*
X1332576D01*
Y584360D01*
X1336682D01*
Y585728D01*
X1340787D01*
Y587097D01*
X1344893D01*
Y588465D01*
X1348998D01*
Y589834D01*
X1354472D01*
Y591202D01*
X1358578D01*
Y592571D01*
X1362683D01*
Y593939D01*
X1366789D01*
Y595308D01*
X1370895D01*
Y596676D01*
X1376369D01*
Y598045D01*
X1380474D01*
Y599414D01*
X1384580D01*
Y600782D01*
X1388685D01*
Y602151D01*
X1394160D01*
Y603519D01*
X1398265D01*
Y604888D01*
X1402371D01*
Y606256D01*
X1406476D01*
Y607625D01*
X1410582D01*
Y608993D01*
X1416056D01*
Y610362D01*
X1420161D01*
Y611730D01*
X1424267D01*
Y613099D01*
X1428373D01*
Y614467D01*
X1429741D01*
Y578886D01*
D02*
G37*
G36*
X1121823Y821114D02*
X1123192D01*
Y812903D01*
X1124560D01*
Y801955D01*
X1125929D01*
Y658260D01*
Y656891D01*
Y654154D01*
X1127297D01*
Y647312D01*
X1125929D01*
Y645943D01*
X1127297D01*
Y320235D01*
X1139614D01*
Y318866D01*
X1140982D01*
Y316129D01*
X1142351D01*
Y313392D01*
X1143720D01*
Y312024D01*
X1149194D01*
Y313392D01*
X1161511D01*
Y369501D01*
X1190249D01*
Y313392D01*
X1238148D01*
Y327077D01*
X1239516D01*
Y328446D01*
X1242253D01*
Y329814D01*
X1262781D01*
Y331183D01*
X1265518D01*
Y332551D01*
X1301100D01*
Y331183D01*
X1302468D01*
Y329814D01*
X1307943D01*
Y331183D01*
X1325733D01*
Y332551D01*
X1329839D01*
Y333920D01*
X1362683D01*
Y332551D01*
X1364052D01*
Y331183D01*
X1366789D01*
Y329814D01*
X1369526D01*
Y328446D01*
X1373632D01*
Y327077D01*
X1377737D01*
Y325709D01*
X1381843D01*
Y324340D01*
X1384580D01*
Y322972D01*
X1388685D01*
Y321603D01*
X1392791D01*
Y320235D01*
X1395528D01*
Y318866D01*
X1398265D01*
Y317498D01*
X1399633D01*
Y314761D01*
X1401002D01*
Y307918D01*
X1402371D01*
Y306549D01*
X1407845D01*
Y305181D01*
X1413319D01*
Y303812D01*
X1418793D01*
Y302444D01*
X1424267D01*
Y301075D01*
X1429741D01*
Y264125D01*
X1424267D01*
Y262757D01*
X1418793D01*
Y261388D01*
X1414687D01*
Y260020D01*
X1409213D01*
Y258651D01*
X1403739D01*
Y257282D01*
X1401002D01*
Y249071D01*
X1399633D01*
Y246334D01*
X1398265D01*
Y244966D01*
X1394160D01*
Y243597D01*
X1391422D01*
Y242229D01*
X1387317D01*
Y240860D01*
X1383211D01*
Y239492D01*
X1380474D01*
Y238123D01*
X1376369D01*
Y236755D01*
X1372263D01*
Y235386D01*
X1369526D01*
Y234018D01*
X1366789D01*
Y232649D01*
X1365420D01*
Y231280D01*
X1364052D01*
Y229912D01*
X1362683D01*
Y228544D01*
X1329839D01*
Y229912D01*
X1328470D01*
Y231280D01*
X1302468D01*
Y229912D01*
X1301100D01*
Y228544D01*
X1291520D01*
Y227175D01*
X1290152D01*
Y228544D01*
X1288783D01*
Y227175D01*
X1287414D01*
Y228544D01*
X1284678D01*
Y227175D01*
X1283309D01*
Y228544D01*
X1281941D01*
Y227175D01*
X1266887D01*
Y228544D01*
X1265518D01*
Y229912D01*
X1242253D01*
Y231280D01*
X1240885D01*
Y235386D01*
X1239516D01*
Y244966D01*
X1190249D01*
Y194330D01*
X1161511D01*
Y244966D01*
X1157405D01*
Y243597D01*
X1143720D01*
Y240860D01*
X1142351D01*
Y238123D01*
X1140982D01*
Y236755D01*
X1139614D01*
Y235386D01*
X1127297D01*
Y-227175D01*
X1125929D01*
Y-244966D01*
X1124560D01*
Y-254545D01*
X1123192D01*
Y-260020D01*
X1098558D01*
Y-257282D01*
X1097190D01*
Y-249071D01*
X1095821D01*
Y-238123D01*
X1094453D01*
Y27371D01*
X1093084D01*
Y234018D01*
X1087610D01*
Y320235D01*
X1093084D01*
Y539199D01*
X1094453D01*
Y807429D01*
X1095821D01*
Y818377D01*
X1097190D01*
Y826588D01*
X1121823D01*
Y821114D01*
D02*
G37*
G36*
X1429741Y106745D02*
X1428373D01*
Y105376D01*
X1425635D01*
Y104008D01*
X1422899D01*
Y102639D01*
X1420161D01*
Y101271D01*
X1417424D01*
Y99902D01*
X1414687D01*
Y98534D01*
X1411950D01*
Y97165D01*
X1409213D01*
Y95797D01*
X1406476D01*
Y94428D01*
X1403739D01*
Y93060D01*
X1401002D01*
Y91691D01*
X1398265D01*
Y90323D01*
X1395528D01*
Y88954D01*
X1391422D01*
Y87586D01*
X1388685D01*
Y86217D01*
X1385948D01*
Y84848D01*
X1383211D01*
Y83480D01*
X1380474D01*
Y82112D01*
X1377737D01*
Y80743D01*
X1375000D01*
Y79374D01*
X1372263D01*
Y78006D01*
X1369526D01*
Y76637D01*
X1366789D01*
Y75269D01*
X1364052D01*
Y73900D01*
X1361315D01*
Y72532D01*
X1358578D01*
Y71163D01*
X1355841D01*
Y69795D01*
X1353104D01*
Y68426D01*
X1350367D01*
Y67058D01*
X1347630D01*
Y65689D01*
X1344893D01*
Y64321D01*
X1342156D01*
Y62952D01*
X1339418D01*
Y61584D01*
X1336682D01*
Y60215D01*
X1333944D01*
Y58846D01*
X1331207D01*
Y57478D01*
X1328470D01*
Y56110D01*
X1325733D01*
Y54741D01*
X1322996D01*
Y53373D01*
X1320259D01*
Y0D01*
X1429741D01*
Y-31476D01*
X1161511D01*
Y65689D01*
X1162879D01*
Y75269D01*
X1164247D01*
Y82112D01*
X1165616D01*
Y87586D01*
X1166984D01*
Y91691D01*
X1168353D01*
Y94428D01*
X1169722D01*
Y98534D01*
X1171090D01*
Y101271D01*
X1172459D01*
Y104008D01*
X1173827D01*
Y106745D01*
X1175196D01*
Y108113D01*
X1176564D01*
Y110850D01*
X1177933D01*
Y113588D01*
X1179301D01*
Y114956D01*
X1180670D01*
Y116325D01*
X1182038D01*
Y117693D01*
X1183407D01*
Y119062D01*
X1184775D01*
Y120430D01*
X1186144D01*
Y121799D01*
X1187512D01*
Y123167D01*
X1188881D01*
Y124536D01*
X1190249D01*
Y125904D01*
X1191618D01*
Y127273D01*
X1194355D01*
Y128641D01*
X1195724D01*
Y130010D01*
X1198461D01*
Y131378D01*
X1199829D01*
Y132747D01*
X1202566D01*
Y134115D01*
X1205303D01*
Y135484D01*
X1209409D01*
Y136852D01*
X1212146D01*
Y138221D01*
X1217620D01*
Y139590D01*
X1223094D01*
Y140958D01*
X1232674D01*
Y142327D01*
X1246359D01*
Y140958D01*
X1257307D01*
Y139590D01*
X1264150D01*
Y138221D01*
X1268255D01*
Y136852D01*
X1272361D01*
Y135484D01*
X1275098D01*
Y134115D01*
X1277835D01*
Y132747D01*
X1280572D01*
Y131378D01*
X1283309D01*
Y130010D01*
X1284678D01*
Y128641D01*
X1287414D01*
Y127273D01*
X1288783D01*
Y125904D01*
X1290152D01*
Y124536D01*
X1292889D01*
Y123167D01*
X1294257D01*
Y121799D01*
X1295626D01*
Y120430D01*
X1296994D01*
Y119062D01*
X1298363D01*
Y117693D01*
X1299731D01*
Y114956D01*
X1301100D01*
Y113588D01*
X1302468D01*
Y112219D01*
X1303837D01*
Y110850D01*
X1305205D01*
Y108113D01*
X1306574D01*
Y105376D01*
X1307943D01*
Y102639D01*
X1309311D01*
Y99902D01*
X1310680D01*
Y97165D01*
X1312048D01*
Y93060D01*
X1313416D01*
Y90323D01*
X1314785D01*
Y87586D01*
X1317522D01*
Y88954D01*
X1320259D01*
Y90323D01*
X1322996D01*
Y91691D01*
X1325733D01*
Y93060D01*
X1328470D01*
Y94428D01*
X1331207D01*
Y95797D01*
X1333944D01*
Y97165D01*
X1336682D01*
Y98534D01*
X1339418D01*
Y99902D01*
X1342156D01*
Y101271D01*
X1344893D01*
Y102639D01*
X1347630D01*
Y104008D01*
X1350367D01*
Y105376D01*
X1353104D01*
Y106745D01*
X1355841D01*
Y108113D01*
X1358578D01*
Y109482D01*
X1361315D01*
Y110850D01*
X1364052D01*
Y112219D01*
X1366789D01*
Y113588D01*
X1369526D01*
Y114956D01*
X1372263D01*
Y116325D01*
X1375000D01*
Y117693D01*
X1377737D01*
Y119062D01*
X1380474D01*
Y120430D01*
X1381843D01*
Y121799D01*
X1384580D01*
Y123167D01*
X1387317D01*
Y124536D01*
X1390054D01*
Y125904D01*
X1392791D01*
Y127273D01*
X1395528D01*
Y128641D01*
X1398265D01*
Y130010D01*
X1401002D01*
Y131378D01*
X1403739D01*
Y132747D01*
X1406476D01*
Y134115D01*
X1409213D01*
Y135484D01*
X1411950D01*
Y136852D01*
X1414687D01*
Y138221D01*
X1417424D01*
Y139590D01*
X1420161D01*
Y140958D01*
X1422899D01*
Y142327D01*
X1425635D01*
Y143695D01*
X1428373D01*
Y145063D01*
X1429741D01*
Y106745D01*
D02*
G37*
G36*
Y-260020D02*
X1161511D01*
Y-93060D01*
X1190249D01*
Y-227175D01*
X1279203D01*
Y-151906D01*
Y-150538D01*
Y-104008D01*
X1309311D01*
Y-227175D01*
X1401002D01*
Y-93060D01*
X1429741D01*
Y-260020D01*
D02*
G37*
G36*
X1095821Y-306549D02*
X1099927D01*
Y-307918D01*
X1104032D01*
Y-309286D01*
X1109507D01*
Y-310655D01*
X1113612D01*
Y-312024D01*
X1117718D01*
Y-313392D01*
X1121823D01*
Y-314760D01*
X1125929D01*
Y-316129D01*
X1130034D01*
Y-317497D01*
X1134140D01*
Y-318866D01*
X1138246D01*
Y-320235D01*
X1143720D01*
Y-321603D01*
X1147825D01*
Y-322972D01*
X1151931D01*
Y-324340D01*
X1156036D01*
Y-325709D01*
X1160142D01*
Y-327077D01*
X1164247D01*
Y-328446D01*
X1168353D01*
Y-329814D01*
X1172459D01*
Y-331183D01*
X1177933D01*
Y-332551D01*
X1182038D01*
Y-333920D01*
X1186144D01*
Y-335288D01*
X1190249D01*
Y-336657D01*
X1194355D01*
Y-338025D01*
X1198461D01*
Y-339394D01*
X1202566D01*
Y-340762D01*
X1206672D01*
Y-342131D01*
X1212146D01*
Y-343499D01*
X1216251D01*
Y-344868D01*
X1220357D01*
Y-346237D01*
X1224463D01*
Y-347605D01*
X1228568D01*
Y-348974D01*
X1232674D01*
Y-350342D01*
X1236779D01*
Y-351710D01*
X1240885D01*
Y-353079D01*
X1246359D01*
Y-354448D01*
X1250464D01*
Y-355816D01*
X1254570D01*
Y-357185D01*
X1258676D01*
Y-358553D01*
X1262781D01*
Y-359922D01*
X1266887D01*
Y-361290D01*
X1270992D01*
Y-362659D01*
X1275098D01*
Y-364027D01*
X1280572D01*
Y-365396D01*
X1284678D01*
Y-366764D01*
X1288783D01*
Y-368133D01*
X1292889D01*
Y-369501D01*
X1296994D01*
Y-370870D01*
X1301100D01*
Y-372239D01*
X1305205D01*
Y-373607D01*
X1309311D01*
Y-374976D01*
X1314785D01*
Y-376344D01*
X1318891D01*
Y-377712D01*
X1322996D01*
Y-379081D01*
X1327102D01*
Y-380450D01*
X1331207D01*
Y-381818D01*
X1335313D01*
Y-383187D01*
X1339418D01*
Y-384555D01*
X1343524D01*
Y-385924D01*
X1348998D01*
Y-387292D01*
X1353104D01*
Y-388661D01*
X1357209D01*
Y-390029D01*
X1361315D01*
Y-391398D01*
X1365420D01*
Y-392766D01*
X1369526D01*
Y-394135D01*
X1373632D01*
Y-395503D01*
X1377737D01*
Y-396872D01*
X1383211D01*
Y-398241D01*
X1387317D01*
Y-399609D01*
X1391422D01*
Y-400977D01*
X1395528D01*
Y-402346D01*
X1399633D01*
Y-403714D01*
X1403739D01*
Y-405083D01*
X1407845D01*
Y-406452D01*
X1411950D01*
Y-407820D01*
X1417424D01*
Y-409189D01*
X1421530D01*
Y-410557D01*
X1425635D01*
Y-411926D01*
X1429741D01*
Y-461193D01*
X1425635D01*
Y-462561D01*
X1421530D01*
Y-463929D01*
X1417424D01*
Y-465298D01*
X1411950D01*
Y-466667D01*
X1407845D01*
Y-468035D01*
X1403739D01*
Y-469404D01*
X1399633D01*
Y-470772D01*
X1395528D01*
Y-472141D01*
X1391422D01*
Y-473509D01*
X1387317D01*
Y-474878D01*
X1381843D01*
Y-476246D01*
X1377737D01*
Y-477615D01*
X1373632D01*
Y-478983D01*
X1369526D01*
Y-480352D01*
X1365420D01*
Y-481720D01*
X1361315D01*
Y-483089D01*
X1357209D01*
Y-484458D01*
X1353104D01*
Y-485826D01*
X1347630D01*
Y-487195D01*
X1343524D01*
Y-488563D01*
X1339418D01*
Y-489931D01*
X1335313D01*
Y-491300D01*
X1331207D01*
Y-492669D01*
X1327102D01*
Y-494037D01*
X1322996D01*
Y-495406D01*
X1317522D01*
Y-496774D01*
X1313416D01*
Y-498143D01*
X1309311D01*
Y-499511D01*
X1305205D01*
Y-500880D01*
X1301100D01*
Y-502248D01*
X1296994D01*
Y-503617D01*
X1292889D01*
Y-504985D01*
X1287414D01*
Y-506354D01*
X1283309D01*
Y-507722D01*
X1279203D01*
Y-509091D01*
X1275098D01*
Y-510459D01*
X1270992D01*
Y-511828D01*
X1266887D01*
Y-513196D01*
X1262781D01*
Y-514565D01*
X1257307D01*
Y-515933D01*
X1253201D01*
Y-517302D01*
X1249096D01*
Y-518671D01*
X1244990D01*
Y-520039D01*
X1240885D01*
Y-521408D01*
X1236779D01*
Y-522776D01*
X1232674D01*
Y-524145D01*
X1227199D01*
Y-525513D01*
X1223094D01*
Y-526882D01*
X1218988D01*
Y-528250D01*
X1214883D01*
Y-529619D01*
X1210777D01*
Y-530987D01*
X1206672D01*
Y-532356D01*
X1202566D01*
Y-533724D01*
X1197092D01*
Y-535093D01*
X1192986D01*
Y-536461D01*
X1188881D01*
Y-537830D01*
X1184775D01*
Y-539198D01*
X1180670D01*
Y-540567D01*
X1176564D01*
Y-541935D01*
X1172459D01*
Y-543304D01*
X1168353D01*
Y-544673D01*
X1162879D01*
Y-546041D01*
X1158773D01*
Y-547410D01*
X1154668D01*
Y-548778D01*
X1150562D01*
Y-550146D01*
X1146457D01*
Y-551515D01*
X1142351D01*
Y-552884D01*
X1138246D01*
Y-554252D01*
X1132771D01*
Y-555621D01*
X1128666D01*
Y-556989D01*
X1124560D01*
Y-558358D01*
X1120455D01*
Y-559726D01*
X1116349D01*
Y-561095D01*
X1112244D01*
Y-562463D01*
X1108138D01*
Y-563832D01*
X1102664D01*
Y-565200D01*
X1098558D01*
Y-566569D01*
X1094453D01*
Y-524145D01*
X1097190D01*
Y-522776D01*
X1101295D01*
Y-521408D01*
X1105401D01*
Y-520039D01*
X1109507D01*
Y-518671D01*
X1114980D01*
Y-517302D01*
X1119086D01*
Y-515933D01*
X1123192D01*
Y-514565D01*
X1127297D01*
Y-513196D01*
X1132771D01*
Y-511828D01*
X1136877D01*
Y-510459D01*
X1140982D01*
Y-509091D01*
X1145088D01*
Y-507722D01*
X1150562D01*
Y-506354D01*
X1154668D01*
Y-504985D01*
X1158773D01*
Y-503617D01*
X1162879D01*
Y-502248D01*
X1166984D01*
Y-500880D01*
X1172459D01*
Y-499511D01*
X1176564D01*
Y-498143D01*
X1180670D01*
Y-496774D01*
X1184775D01*
Y-495406D01*
X1190249D01*
Y-494037D01*
X1194355D01*
Y-492669D01*
X1198461D01*
Y-491300D01*
X1202566D01*
Y-489931D01*
X1206672D01*
Y-488563D01*
X1212146D01*
Y-487195D01*
X1216251D01*
Y-485826D01*
X1220357D01*
Y-484458D01*
X1224463D01*
Y-483089D01*
X1229937D01*
Y-481720D01*
X1234042D01*
Y-480352D01*
X1238148D01*
Y-478983D01*
X1242253D01*
Y-477615D01*
X1247728D01*
Y-476246D01*
X1251833D01*
Y-474878D01*
X1255939D01*
Y-473509D01*
X1260044D01*
Y-472141D01*
X1264150D01*
Y-470772D01*
X1269624D01*
Y-469404D01*
X1273729D01*
Y-468035D01*
X1277835D01*
Y-466667D01*
X1281941D01*
Y-465298D01*
X1287414D01*
Y-463929D01*
X1291520D01*
Y-462561D01*
X1295626D01*
Y-461193D01*
X1299731D01*
Y-459824D01*
X1305205D01*
Y-458456D01*
X1309311D01*
Y-457087D01*
X1313416D01*
Y-455718D01*
X1317522D01*
Y-454350D01*
X1321628D01*
Y-452981D01*
X1327102D01*
Y-451613D01*
X1331207D01*
Y-450244D01*
X1335313D01*
Y-448876D01*
X1339418D01*
Y-447507D01*
X1344893D01*
Y-446139D01*
X1348998D01*
Y-444770D01*
X1353104D01*
Y-443402D01*
X1357209D01*
Y-442033D01*
X1361315D01*
Y-440665D01*
X1366789D01*
Y-439296D01*
X1370895D01*
Y-437927D01*
X1375000D01*
Y-435191D01*
X1370895D01*
Y-433822D01*
X1366789D01*
Y-432454D01*
X1361315D01*
Y-431085D01*
X1357209D01*
Y-429716D01*
X1353104D01*
Y-428348D01*
X1348998D01*
Y-426979D01*
X1344893D01*
Y-425611D01*
X1339418D01*
Y-424242D01*
X1335313D01*
Y-422874D01*
X1331207D01*
Y-421505D01*
X1327102D01*
Y-420137D01*
X1321628D01*
Y-418768D01*
X1317522D01*
Y-417400D01*
X1313416D01*
Y-416031D01*
X1309311D01*
Y-414663D01*
X1303837D01*
Y-413294D01*
X1299731D01*
Y-411926D01*
X1295626D01*
Y-410557D01*
X1291520D01*
Y-409189D01*
X1287414D01*
Y-407820D01*
X1281941D01*
Y-406452D01*
X1277835D01*
Y-405083D01*
X1273729D01*
Y-403714D01*
X1269624D01*
Y-402346D01*
X1264150D01*
Y-400977D01*
X1260044D01*
Y-399609D01*
X1255939D01*
Y-398241D01*
X1251833D01*
Y-396872D01*
X1247728D01*
Y-395503D01*
X1242253D01*
Y-394135D01*
X1238148D01*
Y-392766D01*
X1234042D01*
Y-391398D01*
X1229937D01*
Y-390029D01*
X1224463D01*
Y-388661D01*
X1220357D01*
Y-387292D01*
X1216251D01*
Y-385924D01*
X1212146D01*
Y-384555D01*
X1206672D01*
Y-383187D01*
X1202566D01*
Y-381818D01*
X1198461D01*
Y-380450D01*
X1194355D01*
Y-379081D01*
X1190249D01*
Y-377712D01*
X1184775D01*
Y-376344D01*
X1180670D01*
Y-374976D01*
X1176564D01*
Y-373607D01*
X1172459D01*
Y-372239D01*
X1166984D01*
Y-370870D01*
X1162879D01*
Y-369501D01*
X1158773D01*
Y-368133D01*
X1154668D01*
Y-366764D01*
X1150562D01*
Y-365396D01*
X1145088D01*
Y-364027D01*
X1140982D01*
Y-362659D01*
X1136877D01*
Y-361290D01*
X1132771D01*
Y-359922D01*
X1127297D01*
Y-358553D01*
X1123192D01*
Y-357185D01*
X1119086D01*
Y-355816D01*
X1114980D01*
Y-354448D01*
X1109507D01*
Y-353079D01*
X1105401D01*
Y-351710D01*
X1101295D01*
Y-350342D01*
X1097190D01*
Y-348974D01*
X1094453D01*
Y-305181D01*
X1095821D01*
Y-306549D01*
D02*
G37*
%LPC*%
G36*
X1254570Y799218D02*
X1231305D01*
Y797850D01*
X1225831D01*
Y796481D01*
X1221726D01*
Y795112D01*
X1218988D01*
Y793744D01*
X1214883D01*
Y792375D01*
X1213514D01*
Y791007D01*
X1210777D01*
Y789638D01*
X1209409D01*
Y788270D01*
X1208040D01*
Y786901D01*
X1205303D01*
Y785533D01*
X1203935D01*
Y784164D01*
X1202566D01*
Y781427D01*
X1201197D01*
Y780059D01*
X1199829D01*
Y778690D01*
X1198461D01*
Y775953D01*
X1197092D01*
Y773216D01*
X1195724D01*
Y770479D01*
X1194355D01*
Y766373D01*
X1192986D01*
Y760899D01*
X1191618D01*
Y749951D01*
X1190249D01*
Y686999D01*
X1294257D01*
Y756794D01*
X1292889D01*
Y763637D01*
X1291520D01*
Y767742D01*
X1290152D01*
Y771848D01*
X1288783D01*
Y774585D01*
X1287414D01*
Y777322D01*
X1286046D01*
Y780059D01*
X1284678D01*
Y781427D01*
X1283309D01*
Y782796D01*
X1281941D01*
Y784164D01*
X1280572D01*
Y785533D01*
X1279203D01*
Y786901D01*
X1277835D01*
Y788270D01*
X1276466D01*
Y789638D01*
X1273729D01*
Y791007D01*
X1272361D01*
Y792375D01*
X1269624D01*
Y793744D01*
X1266887D01*
Y795112D01*
X1264150D01*
Y796481D01*
X1260044D01*
Y797850D01*
X1254570D01*
Y799218D01*
D02*
G37*
G36*
X1336682Y551515D02*
X1335313D01*
Y550147D01*
X1329839D01*
Y548778D01*
X1325733D01*
Y547410D01*
X1321628D01*
Y546041D01*
X1316154D01*
Y544673D01*
X1312048D01*
Y543304D01*
X1307943D01*
Y541935D01*
X1302468D01*
Y540567D01*
X1298363D01*
Y539199D01*
X1292889D01*
Y537830D01*
X1288783D01*
Y536461D01*
X1284678D01*
Y535093D01*
X1279203D01*
Y533724D01*
X1275098D01*
Y532356D01*
X1270992D01*
Y530987D01*
X1265518D01*
Y529619D01*
X1261413D01*
Y528250D01*
X1257307D01*
Y526882D01*
X1251833D01*
Y525513D01*
X1247728D01*
Y524145D01*
X1243622D01*
Y522776D01*
X1238148D01*
Y521408D01*
X1234042D01*
Y520039D01*
X1229937D01*
Y518671D01*
X1224463D01*
Y517302D01*
X1220357D01*
Y515934D01*
X1216251D01*
Y514565D01*
X1210777D01*
Y513197D01*
X1206672D01*
Y510459D01*
X1210777D01*
Y509091D01*
X1214883D01*
Y507722D01*
X1220357D01*
Y506354D01*
X1224463D01*
Y504985D01*
X1229937D01*
Y503617D01*
X1234042D01*
Y502248D01*
X1238148D01*
Y500880D01*
X1243622D01*
Y499511D01*
X1247728D01*
Y498143D01*
X1251833D01*
Y496774D01*
X1257307D01*
Y495406D01*
X1261413D01*
Y494037D01*
X1265518D01*
Y492669D01*
X1270992D01*
Y491300D01*
X1275098D01*
Y489932D01*
X1279203D01*
Y488563D01*
X1284678D01*
Y487195D01*
X1288783D01*
Y485826D01*
X1292889D01*
Y484458D01*
X1298363D01*
Y483089D01*
X1302468D01*
Y481720D01*
X1306574D01*
Y480352D01*
X1312048D01*
Y478983D01*
X1316154D01*
Y477615D01*
X1321628D01*
Y476246D01*
X1325733D01*
Y474878D01*
X1329839D01*
Y473509D01*
X1335313D01*
Y472141D01*
X1336682D01*
Y551515D01*
D02*
G37*
G36*
X1243622Y109482D02*
X1236779D01*
Y108113D01*
X1225831D01*
Y106745D01*
X1221726D01*
Y105376D01*
X1217620D01*
Y104008D01*
X1216251D01*
Y102639D01*
X1213514D01*
Y101271D01*
X1210777D01*
Y99902D01*
X1209409D01*
Y98534D01*
X1208040D01*
Y97165D01*
X1205303D01*
Y95797D01*
X1203935D01*
Y94428D01*
X1202566D01*
Y93060D01*
X1201197D01*
Y90323D01*
X1199829D01*
Y88954D01*
X1198461D01*
Y86217D01*
X1197092D01*
Y83480D01*
X1195724D01*
Y79374D01*
X1194355D01*
Y75269D01*
X1192986D01*
Y68426D01*
X1191618D01*
Y57478D01*
X1190249D01*
Y1369D01*
X1191618D01*
Y0D01*
X1290152D01*
Y64321D01*
X1288783D01*
Y71163D01*
X1287414D01*
Y76637D01*
X1286046D01*
Y80743D01*
X1284678D01*
Y83480D01*
X1283309D01*
Y86217D01*
X1281941D01*
Y87586D01*
X1280572D01*
Y90323D01*
X1279203D01*
Y91691D01*
X1277835D01*
Y93060D01*
X1276466D01*
Y95797D01*
X1273729D01*
Y97165D01*
X1272361D01*
Y98534D01*
X1270992D01*
Y99902D01*
X1269624D01*
Y101271D01*
X1266887D01*
Y102639D01*
X1264150D01*
Y104008D01*
X1261413D01*
Y105376D01*
X1258676D01*
Y106745D01*
X1253201D01*
Y108113D01*
X1243622D01*
Y109482D01*
D02*
G37*
%LPD*%
D44*
X204500Y-906500D02*
G03*
X204500Y-906500I-12500J0D01*
G01*
X-1705000Y965000D02*
G03*
X-1705000Y965000I-12500J0D01*
G01*
X-57500Y785000D02*
G03*
X-57500Y785000I-12500J0D01*
G01*
X-2667500Y-818500D02*
G03*
X-2667500Y-818500I-12500J0D01*
G01*
D45*
X3000000Y530000D02*
G03*
X3000000Y-520000I835417J-525000D01*
G01*
Y-695000D02*
G03*
X3000000Y-520000I-87500J87500D01*
G01*
Y530000D02*
G03*
X3000000Y705000I-87500J87500D01*
G01*
X1575000Y-820000D02*
X1725000Y-970000D01*
X1500000Y755000D02*
X1800000Y1055000D01*
X1500000Y-745000D02*
X1550000Y-695000D01*
Y705000D01*
X1500000Y755000D02*
X1550000Y705000D01*
X1500000Y-745000D02*
X1575000Y-820000D01*
X1725000Y-970000D02*
X1800000Y-1045000D01*
Y1055000D02*
X2650000D01*
X1800000Y-1045000D02*
X2650000D01*
X3000000Y-695000D01*
X2650000Y1055000D02*
X3000000Y705000D01*
X-2364600Y-1569700D02*
X-1145400D01*
X-2364600Y-604500D02*
X-1145400D01*
Y-1569700D02*
Y-604500D01*
X-2364600Y-1569700D02*
Y-604500D01*
X735500Y-985500D02*
Y-560500D01*
Y-985500D02*
X1185500D01*
Y-560500D01*
X735500D02*
X1185500D01*
X-1968750Y1076250D02*
X-1688750D01*
X-1968750D02*
Y1316250D01*
X-1688750Y1076250D02*
Y1316250D01*
X-1968750D02*
X-1688750D01*
D46*
X715500Y-520500D02*
G03*
X715500Y-520500I-25000J0D01*
G01*
X-752500Y-1317500D02*
G03*
X-752500Y-1317500I-10000J0D01*
G01*
X-1668750Y1346250D02*
G03*
X-1669776Y1352575I18974J6325D01*
G01*
D47*
X-722500Y-1774000D02*
X344500D01*
X-722500D02*
Y-1507000D01*
X344500D01*
Y-1774000D02*
Y-1507000D01*
X-1592500Y702500D02*
Y775000D01*
Y-225000D02*
Y-152500D01*
X-2592500Y-225000D02*
X-2520000D01*
X-1665000D02*
X-1592500D01*
X-2592500Y702500D02*
Y775000D01*
Y-225000D02*
Y-152500D01*
Y775000D02*
X-2520000D01*
X-1665000D02*
X-1592500D01*
X-160000Y865000D02*
X-127500D01*
X-160000D02*
Y897500D01*
X237500Y865000D02*
X270000D01*
Y897500D01*
Y1262500D02*
Y1295000D01*
X237500D02*
X270000D01*
X-160000D02*
X-127500D01*
X-160000Y1262500D02*
Y1295000D01*
X-2730000Y-622500D02*
Y-534500D01*
X-2609500Y-498500D02*
X-2560500D01*
X-2440000Y-622500D02*
Y-534500D01*
D48*
X-502500Y-797500D02*
Y-477500D01*
X-942500D02*
X-502500D01*
X-942500Y-797500D02*
Y-477500D01*
Y-797500D02*
X-502500D01*
X-1272500Y95000D02*
X-952500D01*
X-1272500Y-345000D02*
Y95000D01*
Y-345000D02*
X-952500D01*
Y95000D01*
X-1050000Y1350000D02*
X-810000D01*
X-1050000Y830000D02*
Y1350000D01*
Y830000D02*
X-810000D01*
Y1350000D01*
X-952500Y-1067500D02*
X-772500D01*
X-952500Y-1307500D02*
Y-1067500D01*
X-772500Y-1307500D02*
Y-1067500D01*
X-952500Y-1307500D02*
X-772500D01*
D49*
X1640300Y1099939D02*
X1809579D01*
X1724939Y1184579D02*
Y1015300D01*
X-484700Y-859732D02*
Y-959700D01*
X-434716D01*
X-418055Y-943039D01*
Y-876394D01*
X-434716Y-859732D01*
X-484700D01*
X-384732D02*
X-351410D01*
X-368071D01*
Y-959700D01*
X-384732D01*
X-351410D01*
X-251442Y-859732D02*
X-284764D01*
X-301426Y-876394D01*
Y-943039D01*
X-284764Y-959700D01*
X-251442D01*
X-234781Y-943039D01*
Y-876394D01*
X-251442Y-859732D01*
X-118055Y-876394D02*
X-134716Y-859732D01*
X-168039D01*
X-184700Y-876394D01*
Y-943039D01*
X-168039Y-959700D01*
X-134716D01*
X-118055Y-943039D01*
X-84732Y-859732D02*
Y-959700D01*
X-18087D01*
X15235Y-859732D02*
Y-959700D01*
Y-926378D01*
X81880Y-859732D01*
X31897Y-909716D01*
X81880Y-959700D01*
X40300Y-1309716D02*
X106945D01*
X73622Y-1276394D02*
Y-1343039D01*
X140268Y-1276394D02*
X156929Y-1259732D01*
X190252D01*
X206913Y-1276394D01*
Y-1293055D01*
X190252Y-1309716D01*
X173590D01*
X190252D01*
X206913Y-1326378D01*
Y-1343039D01*
X190252Y-1359700D01*
X156929D01*
X140268Y-1343039D01*
X240235Y-1259732D02*
Y-1326378D01*
X273558Y-1359700D01*
X306881Y-1326378D01*
Y-1259732D01*
X350016Y-1241629D02*
Y-1274951D01*
Y-1258290D01*
X433322D01*
X449984Y-1274951D01*
Y-1291613D01*
X433322Y-1308274D01*
X449984Y-1158322D02*
X350016D01*
X400000Y-1208306D01*
Y-1141661D01*
X366677Y-1108338D02*
X350016Y-1091677D01*
Y-1058354D01*
X366677Y-1041693D01*
X433322D01*
X449984Y-1058354D01*
Y-1091677D01*
X433322Y-1108338D01*
X366677D01*
Y-1008371D02*
X350016Y-991709D01*
Y-958387D01*
X366677Y-941726D01*
X433322D01*
X449984Y-958387D01*
Y-991709D01*
X433322Y-1008371D01*
X366677D01*
X-643055Y-1276394D02*
X-659716Y-1259732D01*
X-693039D01*
X-709700Y-1276394D01*
Y-1343039D01*
X-693039Y-1359700D01*
X-659716D01*
X-643055Y-1343039D01*
Y-1309716D01*
X-676378D01*
X-609732Y-1359700D02*
Y-1259732D01*
X-543087Y-1359700D01*
Y-1259732D01*
X-509765D02*
Y-1359700D01*
X-459781D01*
X-443120Y-1343039D01*
Y-1276394D01*
X-459781Y-1259732D01*
X-509765D01*
X3139984Y294911D02*
X3040016D01*
Y244927D01*
X3056677Y228266D01*
X3073339D01*
X3090000Y244927D01*
Y294911D01*
Y244927D01*
X3106661Y228266D01*
X3123322D01*
X3139984Y244927D01*
Y294911D01*
X3040016Y194943D02*
X3106661D01*
X3139984Y161620D01*
X3106661Y128298D01*
X3040016D01*
X3090000D01*
Y194943D01*
X3139984Y94975D02*
Y28330D01*
Y61653D01*
X3040016D01*
Y-4993D02*
Y-38315D01*
Y-21654D01*
X3139984D01*
X3123322Y-4993D01*
Y-88299D02*
X3139984Y-104960D01*
Y-138283D01*
X3123322Y-154944D01*
X3056677D01*
X3040016Y-138283D01*
Y-104960D01*
X3056677Y-88299D01*
X3123322D01*
Y-188267D02*
X3139984Y-204928D01*
Y-238251D01*
X3123322Y-254912D01*
X3056677D01*
X3040016Y-238251D01*
Y-204928D01*
X3056677Y-188267D01*
X3123322D01*
X-1092484Y-1314129D02*
Y-1347452D01*
Y-1330790D01*
X-1009178D01*
X-992516Y-1347452D01*
Y-1364113D01*
X-1009178Y-1380774D01*
X-992516Y-1230823D02*
X-1092484D01*
X-1042500Y-1280806D01*
Y-1214161D01*
X-1075823Y-1180839D02*
X-1092484Y-1164177D01*
Y-1130855D01*
X-1075823Y-1114194D01*
X-1009178D01*
X-992516Y-1130855D01*
Y-1164177D01*
X-1009178Y-1180839D01*
X-1075823D01*
X-992516Y-1014226D02*
Y-1080871D01*
X-1059161Y-1014226D01*
X-1075823D01*
X-1092484Y-1030887D01*
Y-1064209D01*
X-1075823Y-1080871D01*
X-2785774Y-277516D02*
Y-360822D01*
X-2769113Y-377484D01*
X-2735790D01*
X-2719129Y-360822D01*
Y-277516D01*
X-2685806Y-294177D02*
X-2669145Y-277516D01*
X-2635823D01*
X-2619161Y-294177D01*
Y-310839D01*
X-2635823Y-327500D01*
X-2652484D01*
X-2635823D01*
X-2619161Y-344161D01*
Y-360822D01*
X-2635823Y-377484D01*
X-2669145D01*
X-2685806Y-360822D01*
X-2585839Y-294177D02*
X-2569177Y-277516D01*
X-2535855D01*
X-2519194Y-294177D01*
Y-360822D01*
X-2535855Y-377484D01*
X-2569177D01*
X-2585839Y-360822D01*
Y-294177D01*
X-2485871D02*
X-2469209Y-277516D01*
X-2435887D01*
X-2419226Y-294177D01*
Y-360822D01*
X-2435887Y-377484D01*
X-2469209D01*
X-2485871Y-360822D01*
Y-294177D01*
X-1325016Y-63274D02*
X-1424984D01*
Y-13291D01*
X-1408323Y3371D01*
X-1375000D01*
X-1358339Y-13291D01*
Y-63274D01*
Y-29952D02*
X-1325016Y3371D01*
X-1424984Y103338D02*
Y36693D01*
X-1375000D01*
X-1391661Y70016D01*
Y86677D01*
X-1375000Y103338D01*
X-1341678D01*
X-1325016Y86677D01*
Y53355D01*
X-1341678Y36693D01*
X-1408323Y136661D02*
X-1424984Y153323D01*
Y186645D01*
X-1408323Y203306D01*
X-1341678D01*
X-1325016Y186645D01*
Y153323D01*
X-1341678Y136661D01*
X-1408323D01*
X-1325016Y303274D02*
Y236629D01*
X-1391661Y303274D01*
X-1408323D01*
X-1424984Y286613D01*
Y253290D01*
X-1408323Y236629D01*
X-362516Y-815791D02*
X-462484D01*
Y-765807D01*
X-445823Y-749146D01*
X-412500D01*
X-395839Y-765807D01*
Y-815791D01*
Y-782468D02*
X-362516Y-749146D01*
X-445823Y-649178D02*
X-462484Y-665839D01*
Y-699161D01*
X-445823Y-715823D01*
X-429161D01*
X-412500Y-699161D01*
Y-665839D01*
X-395839Y-649178D01*
X-379178D01*
X-362516Y-665839D01*
Y-699161D01*
X-379178Y-715823D01*
X-462484Y-615855D02*
Y-549210D01*
Y-582532D01*
X-362516D01*
X885056Y1140016D02*
Y1239984D01*
X935040D01*
X951701Y1223322D01*
Y1190000D01*
X935040Y1173339D01*
X885056D01*
X918379D02*
X951701Y1140016D01*
X985024D02*
X1018347D01*
X1001686D01*
Y1239984D01*
X985024Y1223322D01*
X1068331D02*
X1084992Y1239984D01*
X1118315D01*
X1134976Y1223322D01*
Y1156677D01*
X1118315Y1140016D01*
X1084992D01*
X1068331Y1156677D01*
Y1223322D01*
X1168298D02*
X1184960Y1239984D01*
X1218282D01*
X1234943Y1223322D01*
Y1156677D01*
X1218282Y1140016D01*
X1184960D01*
X1168298Y1156677D01*
Y1223322D01*
X646677Y1033371D02*
X630016Y1016710D01*
Y983387D01*
X646677Y966726D01*
X713322D01*
X729984Y983387D01*
Y1016710D01*
X713322Y1033371D01*
X729984Y1133339D02*
Y1066694D01*
X663339Y1133339D01*
X646677D01*
X630016Y1116677D01*
Y1083355D01*
X646677Y1066694D01*
Y1166661D02*
X630016Y1183323D01*
Y1216645D01*
X646677Y1233306D01*
X713322D01*
X729984Y1216645D01*
Y1183323D01*
X713322Y1166661D01*
X646677D01*
X729984Y1333274D02*
Y1266629D01*
X663339Y1333274D01*
X646677D01*
X630016Y1316613D01*
Y1283291D01*
X646677Y1266629D01*
X443323Y812468D02*
X459984Y829129D01*
Y862451D01*
X443323Y879113D01*
X376678D01*
X360016Y862451D01*
Y829129D01*
X376678Y812468D01*
X360016Y712500D02*
Y779145D01*
X426661Y712500D01*
X443323D01*
X459984Y729161D01*
Y762483D01*
X443323Y779145D01*
Y679177D02*
X459984Y662516D01*
Y629193D01*
X443323Y612532D01*
X376678D01*
X360016Y629193D01*
Y662516D01*
X376678Y679177D01*
X443323D01*
X360016Y579209D02*
Y545887D01*
Y562548D01*
X459984D01*
X443323Y579209D01*
X610823Y814129D02*
X627484Y830790D01*
Y864113D01*
X610823Y880774D01*
X544178D01*
X527516Y864113D01*
Y830790D01*
X544178Y814129D01*
X527516Y714161D02*
Y780806D01*
X594161Y714161D01*
X610823D01*
X627484Y730822D01*
Y764145D01*
X610823Y780806D01*
Y680838D02*
X627484Y664177D01*
Y630854D01*
X610823Y614193D01*
X544178D01*
X527516Y630854D01*
Y664177D01*
X544178Y680838D01*
X610823D01*
Y580871D02*
X627484Y564209D01*
Y530887D01*
X610823Y514226D01*
X594161D01*
X577500Y530887D01*
Y547548D01*
Y530887D01*
X560839Y514226D01*
X544178D01*
X527516Y530887D01*
Y564209D01*
X544178Y580871D01*
X-140774Y724984D02*
Y641677D01*
X-124113Y625016D01*
X-90790D01*
X-74129Y641677D01*
Y724984D01*
X25839Y625016D02*
X-40806D01*
X25839Y691661D01*
Y708322D01*
X9178Y724984D01*
X-24145D01*
X-40806Y708322D01*
X59161D02*
X75823Y724984D01*
X109145D01*
X125806Y708322D01*
Y641677D01*
X109145Y625016D01*
X75823D01*
X59161Y641677D01*
Y708322D01*
X159129D02*
X175791Y724984D01*
X209113D01*
X225774Y708322D01*
Y641677D01*
X209113Y625016D01*
X175791D01*
X159129Y641677D01*
Y708322D01*
X-1184145Y218322D02*
X-1200806Y234984D01*
X-1234129D01*
X-1250790Y218322D01*
Y201661D01*
X-1234129Y185000D01*
X-1200806D01*
X-1184145Y168338D01*
Y151677D01*
X-1200806Y135016D01*
X-1234129D01*
X-1250790Y151677D01*
X-1084177Y234984D02*
X-1150822D01*
Y135016D01*
X-1084177D01*
X-1150822Y185000D02*
X-1117500D01*
X-1050855Y234984D02*
X-984210D01*
X-1017532D01*
Y135016D01*
X-1106677Y753299D02*
X-1090016Y769960D01*
Y803282D01*
X-1106677Y819944D01*
X-1173323D01*
X-1189984Y803282D01*
Y769960D01*
X-1173323Y753299D01*
X-1189984Y719976D02*
Y686653D01*
Y703315D01*
X-1090016D01*
X-1106677Y719976D01*
Y636670D02*
X-1090016Y620008D01*
Y586686D01*
X-1106677Y570025D01*
X-1173323D01*
X-1189984Y586686D01*
Y620008D01*
X-1173323Y636670D01*
X-1106677D01*
Y536702D02*
X-1090016Y520040D01*
Y486718D01*
X-1106677Y470057D01*
X-1123339D01*
X-1140000Y486718D01*
Y503379D01*
Y486718D01*
X-1156661Y470057D01*
X-1173323D01*
X-1189984Y486718D01*
Y520040D01*
X-1173323Y536702D01*
X-2877484Y-859943D02*
X-2794178D01*
X-2777517Y-843282D01*
Y-809960D01*
X-2794178Y-793298D01*
X-2877484D01*
X-2777517Y-759976D02*
Y-726653D01*
Y-743314D01*
X-2877484D01*
X-2860823Y-759976D01*
Y-676669D02*
X-2877484Y-660008D01*
Y-626685D01*
X-2860823Y-610024D01*
X-2794178D01*
X-2777517Y-626685D01*
Y-660008D01*
X-2794178Y-676669D01*
X-2860823D01*
Y-576701D02*
X-2877484Y-560040D01*
Y-526718D01*
X-2860823Y-510056D01*
X-2794178D01*
X-2777517Y-526718D01*
Y-560040D01*
X-2794178Y-576701D01*
X-2860823D01*
X-3088298Y215823D02*
X-3104960Y232484D01*
X-3138282D01*
X-3154943Y215823D01*
Y149178D01*
X-3138282Y132516D01*
X-3104960D01*
X-3088298Y149178D01*
X-3054976Y132516D02*
X-3021653D01*
X-3038314D01*
Y232484D01*
X-3054976Y215823D01*
X-2971669D02*
X-2955008Y232484D01*
X-2921685D01*
X-2905024Y215823D01*
Y149178D01*
X-2921685Y132516D01*
X-2955008D01*
X-2971669Y149178D01*
Y215823D01*
X-2805056Y232484D02*
X-2871701D01*
Y182500D01*
X-2838379Y199161D01*
X-2821717D01*
X-2805056Y182500D01*
Y149178D01*
X-2821717Y132516D01*
X-2855040D01*
X-2871701Y149178D01*
X-2383274Y-502484D02*
Y-402516D01*
X-2333290D01*
X-2316629Y-419177D01*
Y-452500D01*
X-2333290Y-469161D01*
X-2383274D01*
X-2349952D02*
X-2316629Y-502484D01*
X-2233322D02*
Y-402516D01*
X-2283306Y-452500D01*
X-2216661D01*
X-2183339Y-419177D02*
X-2166677Y-402516D01*
X-2133355D01*
X-2116694Y-419177D01*
Y-485822D01*
X-2133355Y-502484D01*
X-2166677D01*
X-2183339Y-485822D01*
Y-419177D01*
X-2083371D02*
X-2066709Y-402516D01*
X-2033387D01*
X-2016726Y-419177D01*
Y-485822D01*
X-2033387Y-502484D01*
X-2066709D01*
X-2083371Y-485822D01*
Y-419177D01*
X-2730798Y1158323D02*
X-2747460Y1174984D01*
X-2780782D01*
X-2797443Y1158323D01*
Y1091678D01*
X-2780782Y1075016D01*
X-2747460D01*
X-2730798Y1091678D01*
X-2697476Y1075016D02*
X-2664153D01*
X-2680814D01*
Y1174984D01*
X-2697476Y1158323D01*
X-2614169D02*
X-2597508Y1174984D01*
X-2564185D01*
X-2547524Y1158323D01*
Y1091678D01*
X-2564185Y1075016D01*
X-2597508D01*
X-2614169Y1091678D01*
Y1158323D01*
X-2514201D02*
X-2497540Y1174984D01*
X-2464218D01*
X-2447556Y1158323D01*
Y1141661D01*
X-2464218Y1125000D01*
X-2447556Y1108339D01*
Y1091678D01*
X-2464218Y1075016D01*
X-2497540D01*
X-2514201Y1091678D01*
Y1108339D01*
X-2497540Y1125000D01*
X-2514201Y1141661D01*
Y1158323D01*
X-2497540Y1125000D02*
X-2464218D01*
X-1313323Y968363D02*
X-1329984Y951701D01*
Y918379D01*
X-1313323Y901718D01*
X-1246678D01*
X-1230016Y918379D01*
Y951701D01*
X-1246678Y968363D01*
X-1230016Y1001685D02*
Y1035008D01*
Y1018347D01*
X-1329984D01*
X-1313323Y1001685D01*
Y1084992D02*
X-1329984Y1101653D01*
Y1134976D01*
X-1313323Y1151637D01*
X-1246678D01*
X-1230016Y1134976D01*
Y1101653D01*
X-1246678Y1084992D01*
X-1313323D01*
X-1230016Y1184960D02*
Y1218282D01*
Y1201621D01*
X-1329984D01*
X-1313323Y1184960D01*
X-2145774Y1027484D02*
Y1010822D01*
X-2112452Y977500D01*
X-2079129Y1010822D01*
Y1027484D01*
X-2112452Y977500D02*
Y927516D01*
X-2045806Y1010822D02*
X-2029145Y1027484D01*
X-1995823D01*
X-1979161Y1010822D01*
Y994161D01*
X-1995823Y977500D01*
X-2012484D01*
X-1995823D01*
X-1979161Y960839D01*
Y944177D01*
X-1995823Y927516D01*
X-2029145D01*
X-2045806Y944177D01*
X-1945839Y1010822D02*
X-1929177Y1027484D01*
X-1895855D01*
X-1879194Y1010822D01*
Y944177D01*
X-1895855Y927516D01*
X-1929177D01*
X-1945839Y944177D01*
Y1010822D01*
X-1845871D02*
X-1829209Y1027484D01*
X-1795887D01*
X-1779226Y1010822D01*
Y944177D01*
X-1795887Y927516D01*
X-1829209D01*
X-1845871Y944177D01*
Y1010822D01*
X-1085774Y-850016D02*
Y-933322D01*
X-1069113Y-949984D01*
X-1035790D01*
X-1019129Y-933322D01*
Y-850016D01*
X-935823Y-949984D02*
Y-850016D01*
X-985807Y-900000D01*
X-919161D01*
X-885839Y-866677D02*
X-869177Y-850016D01*
X-835855D01*
X-819194Y-866677D01*
Y-933322D01*
X-835855Y-949984D01*
X-869177D01*
X-885839Y-933322D01*
Y-866677D01*
X-785871D02*
X-769210Y-850016D01*
X-735887D01*
X-719226Y-866677D01*
Y-933322D01*
X-735887Y-949984D01*
X-769210D01*
X-785871Y-933322D01*
Y-866677D01*
X-891677Y1251613D02*
X-875016Y1268274D01*
Y1301597D01*
X-891677Y1318258D01*
X-908339D01*
X-925000Y1301597D01*
Y1268274D01*
X-941661Y1251613D01*
X-958322D01*
X-974984Y1268274D01*
Y1301597D01*
X-958322Y1318258D01*
X-875016Y1218290D02*
X-974984D01*
X-941661Y1184968D01*
X-974984Y1151645D01*
X-875016D01*
X-891677Y1118322D02*
X-875016Y1101661D01*
Y1068338D01*
X-891677Y1051677D01*
X-908339D01*
X-925000Y1068338D01*
Y1085000D01*
Y1068338D01*
X-941661Y1051677D01*
X-958322D01*
X-974984Y1068338D01*
Y1101661D01*
X-958322Y1118322D01*
X-891677Y1018355D02*
X-875016Y1001693D01*
Y968371D01*
X-891677Y951710D01*
X-958322D01*
X-974984Y968371D01*
Y1001693D01*
X-958322Y1018355D01*
X-891677D01*
Y918387D02*
X-875016Y901725D01*
Y868403D01*
X-891677Y851742D01*
X-958322D01*
X-974984Y868403D01*
Y901725D01*
X-958322Y918387D01*
X-891677D01*
X3387Y-764984D02*
Y-665016D01*
X53371D01*
X70032Y-681678D01*
Y-715000D01*
X53371Y-731661D01*
X3387D01*
X36710D02*
X70032Y-764984D01*
X170000Y-665016D02*
X103355D01*
Y-715000D01*
X136677Y-698339D01*
X153339D01*
X170000Y-715000D01*
Y-748323D01*
X153339Y-764984D01*
X120016D01*
X103355Y-748323D01*
X203323Y-681678D02*
X219984Y-665016D01*
X253307D01*
X269968Y-681678D01*
Y-748323D01*
X253307Y-764984D01*
X219984D01*
X203323Y-748323D01*
Y-681678D01*
X303290Y-764984D02*
X336613D01*
X319952D01*
Y-665016D01*
X303290Y-681678D01*
X-30774Y-619984D02*
Y-520016D01*
X19210D01*
X35871Y-536678D01*
Y-570000D01*
X19210Y-586662D01*
X-30774D01*
X2549D02*
X35871Y-619984D01*
X135839Y-520016D02*
X69194D01*
Y-570000D01*
X102516Y-553339D01*
X119178D01*
X135839Y-570000D01*
Y-603323D01*
X119178Y-619984D01*
X85855D01*
X69194Y-603323D01*
X169162Y-536678D02*
X185823Y-520016D01*
X219146D01*
X235807Y-536678D01*
Y-603323D01*
X219146Y-619984D01*
X185823D01*
X169162Y-603323D01*
Y-536678D01*
X269130D02*
X285791Y-520016D01*
X319113D01*
X335775Y-536678D01*
Y-603323D01*
X319113Y-619984D01*
X285791D01*
X269130Y-603323D01*
Y-536678D01*
X-660774Y637516D02*
Y737484D01*
X-610790D01*
X-594129Y720823D01*
Y687500D01*
X-610790Y670839D01*
X-660774D01*
X-627452D02*
X-594129Y637516D01*
X-560806Y720823D02*
X-544145Y737484D01*
X-510822D01*
X-494161Y720823D01*
Y704161D01*
X-510822Y687500D01*
X-527484D01*
X-510822D01*
X-494161Y670839D01*
Y654178D01*
X-510822Y637516D01*
X-544145D01*
X-560806Y654178D01*
X-460839Y720823D02*
X-444177Y737484D01*
X-410855D01*
X-394194Y720823D01*
Y654178D01*
X-410855Y637516D01*
X-444177D01*
X-460839Y654178D01*
Y720823D01*
X-360871D02*
X-344209Y737484D01*
X-310887D01*
X-294226Y720823D01*
Y654178D01*
X-310887Y637516D01*
X-344209D01*
X-360871Y654178D01*
Y720823D01*
X-736613Y490016D02*
Y589984D01*
X-686629D01*
X-669968Y573322D01*
Y540000D01*
X-686629Y523339D01*
X-736613D01*
X-703290D02*
X-669968Y490016D01*
X-570000D02*
X-636645D01*
X-570000Y556661D01*
Y573322D01*
X-586661Y589984D01*
X-619984D01*
X-636645Y573322D01*
X-536677D02*
X-520016Y589984D01*
X-486693D01*
X-470032Y573322D01*
Y506677D01*
X-486693Y490016D01*
X-520016D01*
X-536677Y506677D01*
Y573322D01*
X-436709Y490016D02*
X-403387D01*
X-420048D01*
Y589984D01*
X-436709Y573322D01*
X-537517Y846726D02*
X-637484D01*
Y896710D01*
X-620823Y913371D01*
X-587500D01*
X-570839Y896710D01*
Y846726D01*
Y880048D02*
X-537517Y913371D01*
Y1013339D02*
Y946694D01*
X-604162Y1013339D01*
X-620823D01*
X-637484Y996677D01*
Y963355D01*
X-620823Y946694D01*
Y1046661D02*
X-637484Y1063323D01*
Y1096645D01*
X-620823Y1113306D01*
X-554178D01*
X-537517Y1096645D01*
Y1063323D01*
X-554178Y1046661D01*
X-620823D01*
Y1146629D02*
X-637484Y1163291D01*
Y1196613D01*
X-620823Y1213274D01*
X-554178D01*
X-537517Y1196613D01*
Y1163291D01*
X-554178Y1146629D01*
X-620823D01*
X1238516Y-985775D02*
X1338483D01*
Y-935791D01*
X1321822Y-919129D01*
X1255177D01*
X1238516Y-935791D01*
Y-985775D01*
Y-819162D02*
Y-885807D01*
X1288500D01*
X1271838Y-852484D01*
Y-835823D01*
X1288500Y-819162D01*
X1321822D01*
X1338483Y-835823D01*
Y-869145D01*
X1321822Y-885807D01*
X1255177Y-785839D02*
X1238516Y-769178D01*
Y-735855D01*
X1255177Y-719194D01*
X1321822D01*
X1338483Y-735855D01*
Y-769178D01*
X1321822Y-785839D01*
X1255177D01*
Y-685871D02*
X1238516Y-669210D01*
Y-635887D01*
X1255177Y-619226D01*
X1321822D01*
X1338483Y-635887D01*
Y-669210D01*
X1321822Y-685871D01*
X1255177D01*
X926710Y860016D02*
Y959984D01*
X976693D01*
X993355Y943322D01*
Y910000D01*
X976693Y893339D01*
X926710D01*
X1026677Y959984D02*
Y860016D01*
X1060000Y893339D01*
X1093322Y860016D01*
Y959984D01*
X1126645Y860016D02*
Y959984D01*
X1176629D01*
X1193290Y943322D01*
Y910000D01*
X1176629Y893339D01*
X1126645D01*
X1159968D02*
X1193290Y860016D01*
X-2449129Y1313322D02*
X-2465790Y1329984D01*
X-2499113D01*
X-2515774Y1313322D01*
Y1246677D01*
X-2499113Y1230016D01*
X-2465790D01*
X-2449129Y1246677D01*
X-2415806Y1313322D02*
X-2399145Y1329984D01*
X-2365823D01*
X-2349161Y1313322D01*
Y1296661D01*
X-2365823Y1280000D01*
X-2382484D01*
X-2365823D01*
X-2349161Y1263339D01*
Y1246677D01*
X-2365823Y1230016D01*
X-2399145D01*
X-2415806Y1246677D01*
X-2315839Y1313322D02*
X-2299177Y1329984D01*
X-2265855D01*
X-2249194Y1313322D01*
Y1246677D01*
X-2265855Y1230016D01*
X-2299177D01*
X-2315839Y1246677D01*
Y1313322D01*
X-2149226Y1230016D02*
X-2215871D01*
X-2149226Y1296661D01*
Y1313322D01*
X-2165887Y1329984D01*
X-2199209D01*
X-2215871Y1313322D01*
X-1463323Y1120032D02*
X-1479984Y1103371D01*
Y1070048D01*
X-1463323Y1053387D01*
X-1396678D01*
X-1380016Y1070048D01*
Y1103371D01*
X-1396678Y1120032D01*
X-1463323Y1153355D02*
X-1479984Y1170016D01*
Y1203339D01*
X-1463323Y1220000D01*
X-1446661D01*
X-1430000Y1203339D01*
Y1186677D01*
Y1203339D01*
X-1413339Y1220000D01*
X-1396678D01*
X-1380016Y1203339D01*
Y1170016D01*
X-1396678Y1153355D01*
X-1463323Y1253323D02*
X-1479984Y1269984D01*
Y1303307D01*
X-1463323Y1319968D01*
X-1396678D01*
X-1380016Y1303307D01*
Y1269984D01*
X-1396678Y1253323D01*
X-1463323D01*
X-1380016Y1353290D02*
Y1386613D01*
Y1369952D01*
X-1479984D01*
X-1463323Y1353290D01*
X-1078323Y-714129D02*
X-1094984Y-730790D01*
Y-764113D01*
X-1078323Y-780774D01*
X-1011678D01*
X-995016Y-764113D01*
Y-730790D01*
X-1011678Y-714129D01*
X-1078323Y-680806D02*
X-1094984Y-664145D01*
Y-630822D01*
X-1078323Y-614161D01*
X-1061661D01*
X-1045000Y-630822D01*
Y-647484D01*
Y-630822D01*
X-1028339Y-614161D01*
X-1011678D01*
X-995016Y-630822D01*
Y-664145D01*
X-1011678Y-680806D01*
X-1078323Y-580838D02*
X-1094984Y-564177D01*
Y-530854D01*
X-1078323Y-514193D01*
X-1011678D01*
X-995016Y-530854D01*
Y-564177D01*
X-1011678Y-580838D01*
X-1078323D01*
Y-480871D02*
X-1094984Y-464209D01*
Y-430887D01*
X-1078323Y-414225D01*
X-1011678D01*
X-995016Y-430887D01*
Y-464209D01*
X-1011678Y-480871D01*
X-1078323D01*
X-453323Y1053371D02*
X-469984Y1036710D01*
Y1003388D01*
X-453323Y986726D01*
X-386678D01*
X-370016Y1003388D01*
Y1036710D01*
X-386678Y1053371D01*
X-370016Y1153339D02*
Y1086694D01*
X-436661Y1153339D01*
X-453323D01*
X-469984Y1136678D01*
Y1103355D01*
X-453323Y1086694D01*
Y1186662D02*
X-469984Y1203323D01*
Y1236646D01*
X-453323Y1253307D01*
X-386678D01*
X-370016Y1236646D01*
Y1203323D01*
X-386678Y1186662D01*
X-453323D01*
Y1286630D02*
X-469984Y1303291D01*
Y1336614D01*
X-453323Y1353275D01*
X-386678D01*
X-370016Y1336614D01*
Y1303291D01*
X-386678Y1286630D01*
X-453323D01*
X-2730798Y1018323D02*
X-2747460Y1034984D01*
X-2780782D01*
X-2797443Y1018323D01*
Y951678D01*
X-2780782Y935016D01*
X-2747460D01*
X-2730798Y951678D01*
X-2697476Y935016D02*
X-2664153D01*
X-2680814D01*
Y1034984D01*
X-2697476Y1018323D01*
X-2614169D02*
X-2597508Y1034984D01*
X-2564185D01*
X-2547524Y1018323D01*
Y951678D01*
X-2564185Y935016D01*
X-2597508D01*
X-2614169Y951678D01*
Y1018323D01*
X-2514201Y951678D02*
X-2497540Y935016D01*
X-2464218D01*
X-2447556Y951678D01*
Y1018323D01*
X-2464218Y1034984D01*
X-2497540D01*
X-2514201Y1018323D01*
Y1001661D01*
X-2497540Y985000D01*
X-2447556D01*
X-3003323Y-398298D02*
X-3019984Y-414959D01*
Y-448282D01*
X-3003323Y-464943D01*
X-2936678D01*
X-2920016Y-448282D01*
Y-414959D01*
X-2936678Y-398298D01*
X-2920016Y-364975D02*
Y-331653D01*
Y-348314D01*
X-3019984D01*
X-3003323Y-364975D01*
Y-281669D02*
X-3019984Y-265008D01*
Y-231685D01*
X-3003323Y-215024D01*
X-2936678D01*
X-2920016Y-231685D01*
Y-265008D01*
X-2936678Y-281669D01*
X-3003323D01*
X-3019984Y-181701D02*
Y-115056D01*
X-3003323D01*
X-2936678Y-181701D01*
X-2920016D01*
X-2733299Y-996677D02*
X-2749960Y-980016D01*
X-2783282D01*
X-2799944Y-996677D01*
Y-1063322D01*
X-2783282Y-1079984D01*
X-2749960D01*
X-2733299Y-1063322D01*
X-2699976Y-1079984D02*
X-2666653D01*
X-2683314D01*
Y-980016D01*
X-2699976Y-996677D01*
X-2616669D02*
X-2600008Y-980016D01*
X-2566685D01*
X-2550024Y-996677D01*
Y-1063322D01*
X-2566685Y-1079984D01*
X-2600008D01*
X-2616669Y-1063322D01*
Y-996677D01*
X-2450057Y-980016D02*
X-2483379Y-996677D01*
X-2516702Y-1030000D01*
Y-1063322D01*
X-2500040Y-1079984D01*
X-2466718D01*
X-2450057Y-1063322D01*
Y-1046661D01*
X-2466718Y-1030000D01*
X-2516702D01*
X-1433298Y-451678D02*
X-1449960Y-435016D01*
X-1483282D01*
X-1499943Y-451678D01*
Y-518323D01*
X-1483282Y-534984D01*
X-1449960D01*
X-1433298Y-518323D01*
X-1399976Y-534984D02*
X-1366653D01*
X-1383314D01*
Y-435016D01*
X-1399976Y-451678D01*
X-1316669D02*
X-1300008Y-435016D01*
X-1266685D01*
X-1250024Y-451678D01*
Y-518323D01*
X-1266685Y-534984D01*
X-1300008D01*
X-1316669Y-518323D01*
Y-451678D01*
X-1166718Y-534984D02*
Y-435016D01*
X-1216701Y-485000D01*
X-1150056D01*
X-2934177Y610798D02*
X-2917516Y627460D01*
Y660782D01*
X-2934177Y677443D01*
X-3000822D01*
X-3017483Y660782D01*
Y627460D01*
X-3000822Y610798D01*
X-3017483Y577476D02*
Y544153D01*
Y560814D01*
X-2917516D01*
X-2934177Y577476D01*
Y494169D02*
X-2917516Y477508D01*
Y444185D01*
X-2934177Y427524D01*
X-3000822D01*
X-3017483Y444185D01*
Y477508D01*
X-3000822Y494169D01*
X-2934177D01*
X-3017483Y327556D02*
Y394201D01*
X-2950838Y327556D01*
X-2934177D01*
X-2917516Y344217D01*
Y377540D01*
X-2934177Y394201D01*
X1486677Y1071701D02*
X1470016Y1055040D01*
Y1021718D01*
X1486677Y1005056D01*
X1553322D01*
X1569984Y1021718D01*
Y1055040D01*
X1553322Y1071701D01*
X1569984Y1105024D02*
Y1138346D01*
Y1121685D01*
X1470016D01*
X1486677Y1105024D01*
Y1188330D02*
X1470016Y1204992D01*
Y1238314D01*
X1486677Y1254975D01*
X1553322D01*
X1569984Y1238314D01*
Y1204992D01*
X1553322Y1188330D01*
X1486677D01*
Y1288298D02*
X1470016Y1304960D01*
Y1338282D01*
X1486677Y1354943D01*
X1553322D01*
X1569984Y1338282D01*
Y1304960D01*
X1553322Y1288298D01*
X1486677D01*
D50*
X809994Y1057496D02*
D03*
%TF.MD5,65aec48dda8a682a50f91832a6cdffc6*%
M02*
